<?xml version="1.0" encoding="UTF-8"?>
<svg width="20px" height="29px" viewBox="0 0 20 29" version="1.1" xmlns="http://www.w3.org/2000/svg" xmlns:xlink="http://www.w3.org/1999/xlink">
    <title>ic_jyz</title>
    <g id="页面-1" stroke="none" stroke-width="1" fill="none" fill-rule="evenodd">
        <g id="ic_jyz" transform="translate(0.474610, 0.000000)" fill-rule="nonzero">
            <path d="M19.237305,9.17876018 C19.237305,4.10965441 14.6520393,0 9.5557586,0 C4.45944471,0 0,4.10962123 0,9.17876018 C0,13.8790631 9.44901648,25.1336041 9.44901648,25.1336041 C9.44901648,25.1336041 19.237305,14.0361403 19.237305,9.17876018 L19.237305,9.17876018 L19.237305,9.17876018 Z M12.7877187,24.5801782 C12.8150928,24.6620016 12.8297586,24.7477404 12.8297586,24.8315215 C12.8297586,25.6987639 11.3927715,26.4026248 9.62275031,26.4026248 C7.85286184,26.4026248 6.41587473,25.6987639 6.41587473,24.8315215 C6.41587473,24.7457164 6.43057375,24.6620016 6.45774869,24.5801782 C4.51605088,24.9404867 3.20899914,25.6212871 3.20899914,26.4026248 C3.20899914,27.5609277 6.08078345,28.497219 9.62278349,28.497219 C13.1649826,28.497219 16.0367006,27.5609277 16.0367006,26.4026248 C16.034577,25.6212871 14.7274921,24.9404867 12.7877187,24.5801782 L12.7877187,24.5801782 L12.7877187,24.5801782 Z" id="形状" fill="#7781FF"></path>
            <path d="M9.88016715,7.01775484 C10.1836782,7.29362892 10.501306,7.569503 10.8189338,7.84537707 C11.8485223,8.75691653 12.881411,9.66471466 13.9175698,10.5687494 L13.9175698,10.5687494 L13.9778391,10.6224693 C14.0483101,10.698073 14.0799318,10.7908798 14.0799318,10.9153768 C14.0752073,11.2997116 14.0720702,11.7484982 14.0707631,12.2185059 L14.0706663,13.1740077 C14.0723317,13.8127943 14.0775601,14.438074 14.0869713,14.9473799 C14.0869713,15.1595908 14.0375625,15.3364331 13.868161,15.4496122 C13.8046354,15.4920544 13.7199347,15.5274229 13.6564091,15.5274229 L13.6564091,15.5274229 L10.8895178,15.5274229 L10.8895178,12.3018183 L11.5671238,12.3018183 L11.5671238,10.597058 L10.4166053,10.597058 C10.162503,10.597058 9.95780951,10.7880477 9.93663432,11.0427007 C9.91545914,10.7880477 9.71076565,10.597058 9.45666338,10.597058 L9.45666338,10.597058 L8.33437839,10.597058 L8.33437839,12.3018183 L9.06139319,12.3018183 L9.06139319,15.5274091 L8.91316687,15.5274091 C8.8708165,15.5274091 8.84258291,15.5344828 8.80729093,15.5344828 L8.80729093,15.5344828 L6.18862594,15.5344828 C5.8921733,15.5344828 5.68747981,15.3505667 5.68747981,15.0251768 C5.68483291,14.5689235 5.6831786,14.0311017 5.68251687,13.4728877 L5.68251687,12.3473966 C5.6831786,11.7891827 5.68483291,11.2513609 5.68747981,10.7951076 C5.68747981,10.7314443 5.74394698,10.6536337 5.78629736,10.6111915 C6.57683773,9.9179695 7.3744365,9.22474746 8.16497688,8.52445173 C8.69435659,8.0646616 9.21667791,7.60487147 9.75311602,7.13093395 C9.788408,7.09556548 9.83075838,7.06019701 9.88016715,7.01775484 Z M9.23081356,5.29178989 C9.66843412,4.9027367 10.0989963,4.9027367 10.5366169,5.29178989 C11.0589382,5.75158002 11.5812595,6.22551753 12.1035808,6.68530766 C12.1106392,6.72067613 12.1318144,6.74189722 12.1812232,6.78433938 L12.1812232,6.78433938 L12.1812232,5.3978953 C12.1812232,5.10787384 12.2518071,5.04421059 12.5200262,5.03713689 L12.5200262,5.03713689 L13.7764207,5.03713689 C13.9881726,5.03713689 14.065815,5.12202123 14.065815,5.36252683 L14.065815,5.36252683 L14.065815,8.2415204 C14.065815,8.39714168 14.1011069,8.48202601 14.2140413,8.58105773 C14.672837,8.97011092 15.1245744,9.37331149 15.5763117,9.77651206 C15.795122,9.96750181 15.8021804,10.0665335 15.6257205,10.2928917 L15.6257205,10.2928917 L15.2869175,10.7173134 C15.1457496,10.8941558 15.0328152,10.9012295 14.8634137,10.7526819 C13.2611578,9.33086932 11.6589019,7.90905677 10.0566459,6.48017053 C9.99312035,6.43065467 9.94371157,6.38113881 9.88018601,6.32454925 C9.51314941,6.6357918 9.1602296,6.95410805 8.80025139,7.27242429 C7.49444809,8.43958384 6.19570319,9.58552232 4.89695829,10.7456082 C4.72755678,10.8941558 4.61462244,10.8941558 4.46639612,10.7102397 C4.33934499,10.5616921 4.21935225,10.4060709 4.09935952,10.2504496 C3.95819159,10.0665335 3.96524999,9.95335442 4.1346515,9.80480684 C4.86166631,9.16817436 5.59573951,8.51739448 6.31569593,7.8736883 C7.28269621,7.01777129 8.25675488,6.15478059 9.23081356,5.29178989 Z" id="形状" fill="#FFFFFF"></path>
        </g>
    </g>
</svg>