<?xml version="1.0" encoding="UTF-8"?>
<svg width="20px" height="29px" viewBox="0 0 20 29" version="1.1" xmlns="http://www.w3.org/2000/svg" xmlns:xlink="http://www.w3.org/1999/xlink">
    <title>ic_gwjc</title>
    <g id="页面-1" stroke="none" stroke-width="1" fill="none" fill-rule="evenodd">
        <g id="ic_gwjc" transform="translate(0.711915, 0.000000)" fill-rule="nonzero">
            <path d="M19.237305,9.17876018 C19.237305,4.10965441 14.6520393,0 9.5557586,0 C4.45944471,0 0,4.10962123 0,9.17876018 C0,13.8790631 9.44901648,25.1336041 9.44901648,25.1336041 C9.44901648,25.1336041 19.237305,14.0361403 19.237305,9.17876018 L19.237305,9.17876018 L19.237305,9.17876018 Z M12.7877187,24.5801782 C12.8150928,24.6620016 12.8297586,24.7477404 12.8297586,24.8315215 C12.8297586,25.6987639 11.3927715,26.4026248 9.62275031,26.4026248 C7.85286184,26.4026248 6.41587473,25.6987639 6.41587473,24.8315215 C6.41587473,24.7457164 6.43057375,24.6620016 6.45774869,24.5801782 C4.51605088,24.9404867 3.20899914,25.6212871 3.20899914,26.4026248 C3.20899914,27.5609277 6.08078345,28.497219 9.62278349,28.497219 C13.1649826,28.497219 16.0367006,27.5609277 16.0367006,26.4026248 C16.034577,25.6212871 14.7274921,24.9404867 12.7877187,24.5801782 L12.7877187,24.5801782 L12.7877187,24.5801782 Z" id="形状" fill="#4198FF"></path>
            <path d="M14.6004084,5 L14.6004084,7.74313327 L14.1381904,7.74313327 C15.0473361,9.65990786 14.5905206,11.9461559 13.0146068,13.3663905 C11.438693,14.7866251 9.11741238,15.0040344 7.30518344,13.9011305 C5.4929545,12.7982266 4.61955148,10.6365658 5.15696077,8.58430802 C5.69437006,6.53205025 7.51514384,5.07589319 9.63533717,5.00274313 L9.79992516,5 L14.6004084,5 Z M11.1714918,7.05734995 L8.42835853,7.05734995 L8.885776,8.88564828 L7.05679189,8.42891659 L7.05679189,11.1720498 L8.885776,10.7146324 L8.42835853,12.5436165 L11.1714918,12.5436165 L10.7140743,10.7146324 L12.5430584,11.1720498 L12.5430584,8.42891659 L10.7140743,8.88564828 L11.1714918,7.05734995 Z M9.79992516,9.1146999 C10.1786728,9.1146999 10.4857085,9.42173555 10.4857085,9.80048322 C10.4857085,10.1792309 10.1786728,10.4862665 9.79992516,10.4862665 C9.42117751,10.4862665 9.11414187,10.1792309 9.11414187,9.80048322 C9.11414187,9.42173556 9.42117751,9.1146999 9.79992516,9.1146999 L9.79992516,9.1146999 Z" id="形状" fill="#FFFFFF"></path>
        </g>
    </g>
</svg>