<?xml version="1.0" encoding="UTF-8"?>
<svg width="20px" height="29px" viewBox="0 0 20 29" version="1.1" xmlns="http://www.w3.org/2000/svg" xmlns:xlink="http://www.w3.org/1999/xlink">
    <title>ic_sc</title>
    <g id="页面-1" stroke="none" stroke-width="1" fill="none" fill-rule="evenodd">
        <g id="ic_sc" transform="translate(0.237305, 0.000000)" fill-rule="nonzero">
            <path d="M19.237305,9.17876018 C19.237305,4.10965441 14.6520393,0 9.5557586,0 C4.45944471,0 0,4.10962123 0,9.17876018 C0,13.8790631 9.44901648,25.1336041 9.44901648,25.1336041 C9.44901648,25.1336041 19.237305,14.0361403 19.237305,9.17876018 L19.237305,9.17876018 L19.237305,9.17876018 Z M12.7877187,24.5801782 C12.8150928,24.6620016 12.8297586,24.7477404 12.8297586,24.8315215 C12.8297586,25.6987639 11.3927715,26.4026248 9.62275031,26.4026248 C7.85286184,26.4026248 6.41587473,25.6987639 6.41587473,24.8315215 C6.41587473,24.7457164 6.43057375,24.6620016 6.45774869,24.5801782 C4.51605088,24.9404867 3.20899914,25.6212871 3.20899914,26.4026248 C3.20899914,27.5609277 6.08078345,28.497219 9.62278349,28.497219 C13.1649826,28.497219 16.0367006,27.5609277 16.0367006,26.4026248 C16.034577,25.6212871 14.7274921,24.9404867 12.7877187,24.5801782 L12.7877187,24.5801782 L12.7877187,24.5801782 Z" id="形状" fill="#1EB3BE"></path>
            <path d="M13.523487,12.8666765 L12.8832906,12.8666765 L12.8832906,7.88055128 C12.8832906,7.58343985 12.6473194,7.34310481 12.3529094,7.33249369 L12.3529094,5.83990838 L12.3684192,5.83990838 C12.4898668,5.83990838 12.5884651,5.74137652 12.5884651,5.61996874 L12.5884651,5.18711762 C12.5884651,5.06557204 12.4900053,4.96717799 12.3684192,4.96717799 L11.3537709,4.96717799 C11.2323233,4.96717799 11.133725,5.06570985 11.133725,5.18711762 L11.133725,5.61996874 C11.133725,5.74151433 11.2321848,5.83990838 11.3537709,5.83990838 L11.3692807,5.83990838 L11.3692807,7.33056439 L10.2182289,7.33056439 L10.2182289,5.83990838 L10.2337387,5.83990838 C10.3551863,5.83990838 10.4537846,5.74137652 10.4537846,5.61996874 L10.4537846,5.18711762 C10.4537846,5.06557204 10.3553248,4.96717799 10.2337387,4.96717799 L9.21909041,4.96717799 C9.09764281,4.96717799 8.99904453,5.06570985 8.99904453,5.18711762 L8.99904453,5.61996874 C8.99904453,5.74151433 9.09750433,5.83990838 9.21909041,5.83990838 L9.23460025,5.83990838 L9.23460025,7.33056439 L6.70732688,7.33056439 C6.40363863,7.33056439 6.15741989,7.57682512 6.15741989,7.88055128 L6.15741989,12.8666765 L5.51722346,12.8666765 C5.21353522,12.8666765 4.96717799,13.1129372 4.96717799,13.4166633 L4.96717799,14.5355166 C4.96717799,14.8392428 5.21339674,15.0855035 5.51722346,15.0855035 L13.5236255,15.0855035 C13.8273138,15.0855035 14.073671,14.8392428 14.073671,14.5355166 L14.073671,13.4166633 C14.0735325,13.1129372 13.8271753,12.8666765 13.523487,12.8666765 Z M6.9908431,9.01450821 L9.01450821,9.01450821 L9.01450821,10.0263408 L6.9908431,10.0263408 L6.9908431,9.01450821 L6.9908431,9.01450821 Z" id="形状" fill="#FFFFFF"></path>
        </g>
    </g>
</svg>