<?xml version="1.0" encoding="UTF-8"?>
<svg width="139px" height="134px" class="emptySvg" viewBox="0 0 139 134" version="1.1" xmlns="http://www.w3.org/2000/svg" xmlns:xlink="http://www.w3.org/1999/xlink">
    <title>ic_default</title>
    <g id="页面-1" stroke="none" stroke-width="1" fill="none" fill-rule="evenodd">
        <g id="工单管理_所有工单-空状态" transform="translate(-725.000000, -396.000000)">
            <g id="编组-2" transform="translate(725.000000, 387.000000)">
                <ellipse id="椭圆形" fill="#F0F4FA" cx="61.9672131" cy="128.227273" rx="59.0163934" ry="14.1818182"></ellipse>
                <polygon id="路径-4" fill="#9EAABD" points="63.147541 69.7272727 10.0327869 63.8181818 63.147541 53.1818182 112.721311 60.2727273"></polygon>
                <polygon id="路径-4" fill="#AFBCD1" points="63.147541 69.7272727 10.0327869 63.8181818 63.147541 53.1818182"></polygon>
                <g id="编组" transform="translate(31.278689, 36.636364)">
                    <ellipse id="椭圆形" fill="#475264" cx="16.5245902" cy="26" rx="16.5245902" ry="16.5454545"></ellipse>
                    <ellipse id="椭圆形" fill="#FFFFFF" cx="16.5245902" cy="23.6363636" rx="5.90163934" ry="5.90909091"></ellipse>
                    <ellipse id="椭圆形" fill="#475264" cx="17.704918" cy="26" rx="2.36065574" ry="2.36363636"></ellipse>
                    <path d="M16.5245902,16.5454545 C23.043361,16.5454545 28.3278689,14.9128588 28.3278689,9.60703812 C28.3278689,4.30121748 23.043361,0 16.5245902,0 C10.0058193,0 4.72131148,4.30121748 4.72131148,9.60703812 C4.72131148,14.9128588 10.0058193,16.5454545 16.5245902,16.5454545 Z" id="椭圆形" fill="#75A9FF"></path>
                </g>
                <polygon id="路径-2" fill="#DCE4F0" points="63.147541 69.7272727 10.0327869 63.8181818 10.0327869 124.681818 63.147541 137.090909"></polygon>
                <polygon id="路径-3" fill="#B9C7DD" points="63.147541 137.090909 63.147541 69.7272727 112.721311 60.2727273 112.721311 121.136364"></polygon>
                <polygon id="路径-10" fill="#B0BFD6" points="63.147541 69.7272727 67.8688525 95.1363636 112.721311 85.0909091 112.721311 60.2727273"></polygon>
                <polygon id="路径-9" fill="#D3DDEB" points="10.0327869 63.8181818 10.0327869 88.6363636 59.6065574 95.1363636 63.147541 69.7272727"></polygon>
                <polygon id="路径-5" fill="#EBF3FF" points="10.0327869 63.8181818 0 81.5454545 54.295082 88.6363636 63.147541 69.7272727"></polygon>
                <polygon id="路径-6" fill="#D7DFEB" points="63.147541 69.7272727 73.7704918 88.6363636 123.344262 79.1818182 112.721311 60.2727273"></polygon>
                <ellipse id="椭圆形" fill="#475264" transform="translate(64.327869, 63.818182) rotate(-240.000000) translate(-64.327869, -63.818182) " cx="64.3278689" cy="63.8181818" rx="2.36289697" ry="9.44560358"></ellipse>
                <ellipse id="椭圆形" fill="#475264" transform="translate(30.098361, 63.818182) scale(-1, 1) rotate(-240.000000) translate(-30.098361, -63.818182) " cx="30.0983607" cy="63.8181818" rx="2.36289697" ry="9.44560358"></ellipse>
                <path d="M86.4452518,-23.7133215 C87.4831447,-22.8040185 88.5276984,-21.6641088 89.5588041,-20.3173658 L90.4955518,-21.0363794 C89.4192746,-22.4421217 88.3225079,-23.6390108 87.2225031,-24.6027303 L86.4452518,-23.7133215 Z M91.5499606,-17.4305571 C92.33625,-16.1739947 93.1003087,-14.8095871 93.8325183,-13.3544697 L94.8866152,-13.8862275 C94.1383078,-15.373336 93.3563816,-16.7696503 92.5501853,-18.0580256 L91.5499606,-17.4305571 Z M95.3206454,-10.1698659 C95.9291717,-8.76747115 96.5041545,-7.30927391 97.0399106,-5.8085409 L98.1513677,-6.20632955 C97.6068674,-7.73155618 97.0222658,-9.21414739 96.4032135,-10.6408002 L95.3206454,-10.1698659 Z M98.1456116,-2.46792859 C98.6003824,-0.980574519 99.0139848,0.53165994 99.3828615,2.05819038 L100.530088,1.78026972 C100.155682,0.230856674 99.735874,-1.3040664 99.2742342,-2.81388619 L98.1456116,-2.46792859 Z M100.132179,5.49354299 C100.432786,7.03757807 100.685127,8.58379652 100.886925,10.1235476 L102.05722,9.96978219 C101.852221,8.4056086 101.595944,6.83526716 101.2907,5.26742105 L100.132179,5.49354299 Z M101.260486,13.6442297 C101.388078,15.2245077 101.459274,16.7870424 101.472607,18.3245413 L102.652891,18.3142797 C102.639308,16.7480518 102.566821,15.1571957 102.436976,13.5490003 L101.260486,13.6442297 Z M101.397536,21.8724796 C101.314695,23.4633439 101.165175,25.0160258 100.948026,26.5241405 L102.116276,26.6927778 C102.338627,25.1485301 102.491585,23.5601444 102.576262,21.9340142 L101.397536,21.8724796 Z M100.320261,29.9391237 C99.9575425,31.4803057 99.4386021,32.9231051 98.7735724,34.2612956 L99.8303067,34.7877793 C100.535905,33.3679553 101.085679,31.8394293 101.469122,30.2101922 L100.320261,29.9391237 Z M96.9352088,37.2241069 C96.0027191,38.4490458 94.9256493,39.5408905 93.7273279,40.4875075 L94.4584159,41.4153296 C95.7338775,40.4077757 96.8808433,39.2450761 97.8739385,37.9405243 L96.9352088,37.2241069 Z M90.8061475,42.381457 C89.4436174,43.0956091 88.00041,43.6413833 86.5237811,44.0067736 L86.806964,45.1540744 C88.3749254,44.7660839 89.9068732,44.186751 91.353554,43.4284924 L90.8061475,42.381457 Z M83.1705246,44.5176352 C81.5904341,44.6085222 80.0543499,44.4824884 78.6348321,44.1460083 L78.3629179,45.2960388 C79.8959195,45.6594189 81.5462783,45.7948288 83.2382199,45.6975081 L83.1705246,44.5176352 Z M75.4061932,42.890683 C74.0510484,42.1104956 72.9626312,41.0796083 72.197116,39.832066 L71.1914353,40.4507298 C72.0630049,41.8711065 73.2963359,43.039248 74.8178365,43.9152102 L75.4061932,42.890683 Z M71.0613904,36.8084397 C70.9558932,36.221932 70.9014267,35.6080722 70.8995039,34.9680272 C70.8994556,34.0243448 71.0262855,33.1626815 71.2756914,32.3614505 L70.1488266,32.0097954 C69.8634015,32.9267401 69.7191214,33.9069576 69.7191787,34.9698365 C69.7213093,35.6799128 69.7818875,36.3626536 69.8997518,37.0179157 L71.0613904,36.8084397 Z M72.9128597,29.5227078 C73.9129029,28.4497389 75.2293064,27.6924237 76.7110857,27.3309944 L76.4317182,26.1827563 C74.7293539,26.5979898 73.2093047,27.4724605 72.0499219,28.7163884 L72.9128597,29.5227078 Z M80.0110698,27.1860564 C81.4462107,27.3958007 82.8551496,27.9518021 84.1474246,28.8409845 L84.8159212,27.8669839 C83.3753969,26.8757947 81.7962174,26.2526123 80.1815494,26.0166303 L80.0110698,27.1860564 Z M86.7408177,31.2901698 C87.6281229,32.4074994 88.3911568,33.7283753 89.0096895,35.2441933 L90.1023388,34.7972089 C89.4422733,33.179608 88.6230196,31.7614108 87.6646883,30.5546423 L86.7408177,31.2901698 Z M89.9987042,38.327562 C90.343422,39.7391805 90.5852375,41.2660184 90.7183719,42.9052181 L91.8948161,42.8094269 C91.7567177,41.1091073 91.5051207,39.520509 91.1452565,38.046866 L89.9987042,38.327562 Z M90.8366844,46.4609978 C90.8202647,47.9438366 90.7267673,49.4983201 90.553977,51.1234551 L91.7276727,51.2485621 C91.9043558,49.5868146 92.0000986,47.9949988 92.0169397,46.4741 L90.8366844,46.4609978 Z M90.0504837,54.6329596 C89.7735308,56.1035779 89.4030919,57.6238488 88.9459989,59.16839 L90.0776894,59.5041498 C90.5459301,57.9219399 90.9258452,56.3627788 91.2103714,54.8519464 L90.0504837,54.6329596 Z M87.8346218,62.5105808 C87.2988381,63.9633046 86.6966778,65.4100949 86.0367703,66.8294718 L87.1068354,67.3282317 C87.7803278,65.8796355 88.3948953,64.4030349 88.9418659,62.919979 L87.8346218,62.5105808 Z M84.4587671,69.966701 C83.7015748,71.3616148 82.8957826,72.7023946 82.0513169,73.970425 L83.0333452,74.6260755 C83.8977996,73.3280307 84.7218984,71.9567901 85.4958187,70.5310596 L84.4587671,69.966701 Z M79.9715949,76.8441438 C78.9663298,78.1191114 77.9285501,79.277771 76.8699296,80.303338 L77.690673,81.1526744 C78.7882947,80.089324 79.8610944,78.8915653 80.8980206,77.5764422 L79.9715949,76.8441438 Z M74.2528764,82.5319735 C72.9292575,83.5061026 71.5972616,84.2564217 70.2716923,84.7677106 L70.6959913,85.8705295 C72.1240933,85.3196925 73.5471915,84.518055 74.9519288,83.4842261 L74.2528764,82.5319735 Z" id="路径-7" fill="#75A9FF" fill-rule="nonzero" transform="translate(86.186035, 30.633900) rotate(-75.000000) translate(-86.186035, -30.633900) "></path>
                <path d="M134.474547,66.7727273 C137.373598,66.7727273 138.533218,70.9067837 137.953408,74.3518308 C137.401995,77.6281511 136.326175,79.0349571 133.22978,83.3134537 C135.204099,78.7584092 135.853729,70.4581333 134.017937,66.7915262 C134.166357,66.779644 134.318778,66.7727273 134.474547,66.7727273 Z M133.402397,66.893229 C135.257849,70.0689542 134.64016,78.5722497 132.696132,83.0371104 C132.350214,78.8388269 129.836066,76.5175023 129.836066,72.973812 C129.836066,69.7253903 131.103646,67.50412 133.278113,66.9235597 Z" id="形状结合" fill="#75A9FF" transform="translate(133.967213, 75.045455) rotate(-345.000000) translate(-133.967213, -75.045455) "></path>
            </g>
        </g>
    </g>
</svg>
