<?xml version="1.0" encoding="UTF-8"?>
<svg width="62px" height="63px" viewBox="0 0 62 63" version="1.1" xmlns="http://www.w3.org/2000/svg" xmlns:xlink="http://www.w3.org/1999/xlink">
    <g id="页面-1" stroke="none" stroke-width="1" fill-rule="evenodd">
        <g id="编组-18" transform="translate(-93.000000, -6.000000)">
            <g id="编组-2" transform="translate(60.000000, 12.000000)">
                <g id="ic_jbxx_off" transform="translate(39.000000, 0.000000)">
                    <g id="Group" transform="translate(9.000000, 13.000037)">
                        <path d="M31.231,23.8290673 L17.48,23.8290673 C17.204,23.8290673 16.98,23.6050667 16.98,23.3290659 C16.98,23.0530651 17.204,22.8290645 17.48,22.8290645 L30.731,22.8290645 L30.731,5.32901505 L28.585,5.32901505 C28.309,5.32901505 28.085,5.10501442 28.085,4.82901364 C28.085,4.55301286 28.309,4.32901223 28.585,4.32901223 L31.231,4.32901223 C31.507,4.32901223 31.731,4.55301286 31.731,4.82901364 L31.731,23.3290659 C31.731,23.6060667 31.507,23.8290673 31.231,23.8290673 L31.231,23.8290673 Z" id="Shape"></path>
                        <path d="M14.314,23.8290673 L0.647,23.8290673 C0.371,23.8290673 0.147,23.6050667 0.147,23.3290659 L0.147,4.82901364 C0.147,4.55301286 0.371,4.32901223 0.647,4.32901223 L3.272,4.32901223 C3.548,4.32901223 3.772,4.55301286 3.772,4.82901364 C3.772,5.10501442 3.548,5.32901505 3.272,5.32901505 L1.147,5.32901505 L1.147,22.8290645 L14.314,22.8290645 C14.59,22.8290645 14.814,23.0530651 14.814,23.3290659 C14.814,23.6050667 14.59,23.8290673 14.314,23.8290673 L14.314,23.8290673 Z" id="Shape"></path>
                        <path d="M29.022,21.954062 C28.914,21.954062 28.804,21.936062 28.699,21.9000619 C19.414,18.7290529 16.69,21.5690609 16.663,21.598061 C16.474,21.8060616 16.203,21.9280619 15.922,21.9280619 L15.919,21.9280619 C15.636,21.9270619 15.364,21.8100616 15.176,21.600061 C15.149,21.5710609 12.422,18.7300529 3.138,21.9010619 C2.832,22.0050622 2.494,21.955062 2.233,21.7680615 C1.97,21.580061 1.815,21.2770601 1.815,20.9550592 L1.815,2.70500764 C1.815,2.27000641 2.096,1.88500532 2.51,1.75200495 C2.857,1.64200464 10.777,-0.841002376 15.919,1.57300444 C21.062,-0.844002384 28.981,1.64200464 29.327,1.75200495 C29.741,1.88500532 30.022,2.27000641 30.022,2.70500764 L30.022,20.9550592 C30.022,21.2780601 29.866,21.580061 29.604,21.7680615 C29.432,21.8910618 29.228,21.954062 29.022,21.954062 L29.022,21.954062 Z M10.816,18.3860519 C13.479,18.3860519 15.063,19.0730539 15.918,19.6390555 C17.348,18.6870528 20.831,17.3980491 28.022,19.5800553 L28.022,3.45800977 C25.992,2.91700824 19.997,1.58300447 16.402,3.56901008 C16.101,3.73501055 15.736,3.73501055 15.435,3.56901008 C11.838,1.58300447 5.844,2.91700824 3.814,3.45800977 L3.814,19.5800553 C6.714,18.7010528 9.013,18.3860519 10.816,18.3860519 L10.816,18.3860519 Z" id="Shape"></path>
                        <path d="M15.939,21.954062 L15.897,21.954062 C15.502,21.954062 15.145,21.7220614 14.984,21.3620603 C14.823,21.0020593 14.889,20.5810581 15.153,20.2870573 C15.345,20.0710567 15.628,19.9510564 15.924,19.9430563 C16.213,19.9470563 16.497,20.0660567 16.684,20.2870573 C16.935,20.5840581 17,21.0120594 16.836,21.3650603 C16.672,21.7180613 16.328,21.954062 15.939,21.954062 L15.939,21.954062 Z" id="Shape"></path>
                        <path d="M15.918,21.4310605 C15.642,21.4310605 15.418,21.2070599 15.418,20.9310591 L15.418,2.69500761 C15.418,2.41900683 15.642,2.1950062 15.918,2.1950062 C16.194,2.1950062 16.418,2.41900683 16.418,2.69500761 L16.418,20.9310591 C16.418,21.2070599 16.195,21.4310605 15.918,21.4310605 L15.918,21.4310605 Z" id="Shape"></path>
                        <path d="M17.481,24.9540705 L14.314,24.9540705 C14.038,24.9540705 13.814,24.7300699 13.814,24.4540691 C13.814,22.9120647 14.729,21.7040613 15.897,21.7040613 C17.066,21.7040613 17.981,22.9120647 17.981,24.4540691 C17.981,24.7310699 17.757,24.9540705 17.481,24.9540705 L17.481,24.9540705 Z M14.861,23.9540677 L16.934,23.9540677 C16.797,23.2400656 16.377,22.7040641 15.897,22.7040641 C15.417,22.7040641 14.998,23.2400656 14.861,23.9540677 L14.861,23.9540677 Z" id="Shape"></path>
                    </g>
                </g>
            </g>
        </g>
    </g>
</svg>
