<?xml version="1.0" encoding="UTF-8"?>
<svg width="62px" height="63px" viewBox="0 0 62 63" version="1.1" xmlns="http://www.w3.org/2000/svg" xmlns:xlink="http://www.w3.org/1999/xlink">
    <g id="页面-1" stroke="none" stroke-width="1" fill-rule="evenodd">
        <g id="编组-17" transform="translate(-963.000000, -6.000000)">
            <g id="编组-2" transform="translate(60.000000, 12.000000)">
                <g id="ic_pzsptz_off" transform="translate(909.000000, 0.000000)">
                    <path d="M38.4157918,19.8351826 L37.3148109,19.8351826 L37.3148109,12.4681393 C37.3148109,12.2097451 37.1051003,12.0000339 36.8467068,12.0000339 L12.5305708,12.0000339 C12.2721773,12.0000339 12.0624667,12.2097451 12.0624667,12.4681393 L12.0624667,19.8351826 L10.9362082,19.8351826 C10.4184851,19.8351826 10,20.2536688 10,20.7713935 L10,37.1944044 C10,37.712129 10.4184851,38.1306152 10.9362082,38.1306152 L38.4157918,38.1306152 C38.9335149,38.1306152 39.352,37.712129 39.352,37.1944044 L39.352,20.7713935 C39.352,20.2546051 38.9325787,19.8351826 38.4157918,19.8351826 L38.4157918,19.8351826 Z M11.8724164,22.0408954 L12.1841738,22.270267 C12.2309842,22.3226948 12.2862205,22.3657605 12.351755,22.3938469 L21.3131401,28.9838351 L11.8724164,35.9267749 L11.8724164,22.0408954 L11.8724164,22.0408954 Z M36.3523889,36.2581935 L12.9986749,36.2581935 L24.6750638,27.6722037 L36.3523889,36.2581935 L36.3523889,36.2581935 Z M28.0388599,28.9828989 L37.0245864,22.3751227 C37.0910572,22.3479725 37.1462934,22.3039706 37.1931039,22.2506066 L37.4795836,22.0399592 L37.4795836,35.9249024 L28.0388599,28.9828989 L28.0388599,28.9828989 Z M36.3786027,12.9362448 L36.3786027,21.6888801 L27.2487002,28.4024482 L24.9521814,26.71446 C24.7874088,26.5918164 24.5627188,26.5918164 24.3979462,26.71446 L22.1014274,28.4024482 L12.9977387,21.7076043 L12.9977387,12.9362448 L36.3786027,12.9362448 Z M23.7922194,19.5271692 L16.7996803,19.5271692 C16.2819571,19.5271692 15.8634721,19.9465917 15.8634721,20.4633801 C15.8634721,20.9801685 16.2819571,21.3995909 16.7996803,21.3995909 L16.7996803,21.3995909 L23.7922194,21.3995909 C24.3090064,21.3995909 24.7284277,20.9801685 24.7284277,20.4633801 C24.7284277,19.9465917 24.3099426,19.5271692 23.7922194,19.5271692 L23.7922194,19.5271692 Z M31.1152401,15.7823258 L16.7996803,15.7823258 C16.2819571,15.7823258 15.8634721,16.2017482 15.8634721,16.7185366 C15.8634721,17.235325 16.2819571,17.6547475 16.7996803,17.6547475 L16.7996803,17.6547475 L31.1152401,17.6547475 C31.6329633,17.6547475 32.0514483,17.235325 32.0514483,16.7185366 C32.0514483,16.2017482 31.6329633,15.7823258 31.1152401,15.7823258 L31.1152401,15.7823258 Z" id="Shape" ></path>
                </g>
            </g>
        </g>
    </g>
</svg>
