<?xml version="1.0" encoding="UTF-8"?>
<svg width="62px" height="63px" viewBox="0 0 62 63" version="1.1" xmlns="http://www.w3.org/2000/svg" xmlns:xlink="http://www.w3.org/1999/xlink">
    <g id="页面-1" stroke="none" stroke-width="1"  fill-rule="evenodd">
        <g id="编组" transform="translate(-715.000000, -6.000000)">
            <g id="编组-2" transform="translate(60.000000, 12.000037)">
                <g id="ic_pzfbmb_off" transform="translate(661.000000, 0.000000)">
                    <path d="M38.5204531,14.4164082 L28.6204082,14.4164082 L28.6204082,14.0869918 C28.6204082,12.9366163 27.6837918,12 26.5334163,12 L15.604849,12 C14.4544735,12 13.5178571,12.9366163 13.5178571,14.0869918 L13.5178571,15.7826082 L11.0869918,15.7826082 C9.93661633,15.7826082 9,16.7192245 9,17.8696 L9,35.1913224 C9,36.3520245 9.9438449,37.2958694 11.1045469,37.2958694 L34.0025959,37.2958694 C35.163298,37.2958694 36.1071429,36.3520245 36.1071429,35.1913224 L36.1071429,33.5132612 L38.5204531,33.5132612 C39.6811551,33.5132612 40.625,32.5694163 40.625,31.4087143 L40.625,16.5209551 C40.625,15.3602531 39.6811551,14.4164082 38.5204531,14.4164082 L38.5204531,14.4164082 Z M11.0653061,35.1913224 L11.0653061,20.3035633 L11.0869918,17.8479143 L14.5505102,17.8479143 L22.0372449,17.8696 L22.0372449,19.2316694 C22.0372449,19.8016939 22.4998735,20.2643224 23.069898,20.2643224 L34.0418367,20.3035633 L34.0025959,35.2305633 L11.0653061,35.1913224 L11.0653061,35.1913224 Z M22.5535714,21.6656327 C25.9065959,21.6656327 28.6328,24.3928694 28.6328,27.7448612 C28.6328,31.0968531 25.9055633,33.8240898 22.5535714,33.8240898 C19.2015796,33.8240898 16.4743429,31.0968531 16.4743429,27.7448612 C16.4743429,24.3928694 19.2015796,21.6656327 22.5535714,21.6656327 Z M22.5535714,23.7309388 C20.3405959,23.7309388 18.539649,25.5318857 18.539649,27.7448612 C18.539649,29.9578367 20.3395633,31.7587837 22.5535714,31.7587837 C24.7675796,31.7587837 26.5674939,29.9578367 26.5674939,27.7448612 C26.5674939,25.5318857 24.7665469,23.7309388 22.5535714,23.7309388 Z M15.604849,14.0653061 L26.555102,14.0869918 L26.555102,15.4490612 C26.555102,16.0190857 27.0177306,16.4817143 27.5877551,16.4817143 L38.5204531,16.4817143 L38.5596939,16.5209551 L38.5204531,31.4479551 L36.1071429,31.4479551 L36.1071429,20.3035633 C36.1071429,19.1428612 35.163298,18.1990163 34.0025959,18.1990163 L24.102551,18.1990163 L24.102551,17.8696 C24.102551,16.7192245 23.1659347,15.7826082 22.0155592,15.7826082 L15.5893592,15.7826082 L15.604849,14.0653061 Z M22.5535714,25.0341469 C23.1235959,25.0341469 23.5862245,25.4967755 23.5862245,26.0668 L23.5862245,26.0668 L23.5862245,26.7122082 L24.2316327,26.7122082 C24.8026898,26.7122082 25.2642857,27.1748367 25.2642857,27.7448612 C25.2642857,28.3148857 24.8016571,28.7775143 24.2316327,28.7775143 L24.2316327,28.7775143 L23.5862245,28.7775143 L23.5862245,29.4229224 C23.5862245,29.9929469 23.1235959,30.4555755 22.5535714,30.4555755 C21.9835469,30.4555755 21.5209184,29.9929469 21.5209184,29.4229224 L21.5209184,29.4229224 L21.5209184,28.7775143 L20.8755102,28.7775143 C20.3054857,28.7775143 19.8428571,28.3148857 19.8428571,27.7448612 C19.8428571,27.1748367 20.3054857,26.7122082 20.8755102,26.7122082 L20.8755102,26.7122082 L21.5209184,26.7122082 L21.5209184,26.0668 C21.5209184,25.4967755 21.9835469,25.0341469 22.5535714,25.0341469 Z" id="Shape"></path>
                </g>
            </g>
        </g>
    </g>
</svg>
