<?xml version="1.0" encoding="UTF-8"?>
<svg width="62px" height="63px" viewBox="0 0 62 63" version="1.1" xmlns="http://www.w3.org/2000/svg" xmlns:xlink="http://www.w3.org/1999/xlink">
    <g id="页面-1" stroke="none" stroke-width="1" fill-rule="evenodd">
        <g id="编组-18" transform="translate(-383.000000, -6.000000)">
            <g id="编组-2" transform="translate(60.000000, 12.000000)">
                <g id="ic_pzlzhj_off" transform="translate(329.000000, 0.000000)">
                    <path d="M37.341,12.0000339 C35.39,12.0000339 33.803,13.5870384 33.803,15.5370439 C33.803,16.4600465 34.166,17.2940488 34.747,17.9250506 L30.389,25.2090712 C30.107,25.136071 29.817,25.0860709 29.512,25.0860709 C28.901,25.0860709 28.334,25.2560713 27.832,25.5300721 L24.461,22.1590626 C24.735,21.6570612 24.905,21.0900596 24.905,20.4790578 C24.905,18.5280523 23.318,16.9410479 21.367,16.9410479 C19.416,16.9410479 17.829,18.5280523 17.829,20.4790578 C17.829,21.4020605 18.192,22.2360628 18.773,22.8660646 L14.415,30.1500852 C14.133,30.077085 13.842,30.0270848 13.538,30.0270848 C11.587,30.0270848 10,31.6140893 10,33.5650948 C10,35.5151003 11.587,37.1021048 13.538,37.1021048 C15.489,37.1021048 17.076,35.5151003 17.076,33.5650948 C17.076,32.6420922 16.713,31.8080898 16.132,31.1770881 L20.49,23.8930675 C20.772,23.9660677 21.062,24.0160678 21.367,24.0160678 C21.978,24.0160678 22.545,23.8460674 23.047,23.5720666 L26.418,26.9430761 C26.144,27.4450775 25.974,28.0120791 25.974,28.6230809 C25.974,30.5740864 27.561,32.1610908 29.512,32.1610908 C31.463,32.1610908 33.05,30.5740864 33.05,28.6230809 C33.05,27.7010782 32.687,26.8670759 32.106,26.2360741 L36.464,18.9520535 C36.746,19.0250537 37.036,19.0750539 37.341,19.0750539 C39.292,19.0750539 40.879,17.4880494 40.879,15.5370439 C40.879,13.5870384 39.292,12.0000339 37.341,12.0000339 L37.341,12.0000339 Z M13.539,35.1020992 C12.691,35.1020992 12.001,34.4130972 12.001,33.5650948 C12.001,32.7170924 12.691,32.0270905 13.539,32.0270905 C14.387,32.0270905 15.077,32.7170924 15.077,33.5650948 C15.077,34.4130972 14.387,35.1020992 13.539,35.1020992 L13.539,35.1020992 Z M19.83,20.4790578 C19.83,19.6310555 20.52,18.9410535 21.368,18.9410535 C22.216,18.9410535 22.906,19.6310555 22.906,20.4790578 C22.906,21.3270602 22.216,22.0160622 21.368,22.0160622 C20.52,22.0160622 19.83,21.3260602 19.83,20.4790578 L19.83,20.4790578 Z M29.513,30.1610852 C28.665,30.1610852 27.975,29.4710832 27.975,28.6230809 C27.975,27.7750785 28.665,27.0860765 29.513,27.0860765 C29.798,27.0860765 30.061,27.1690767 30.29,27.3040771 C30.293,27.3060771 30.295,27.3090771 30.298,27.3110771 C30.306,27.3160772 30.315,27.3170772 30.322,27.3210772 C30.757,27.5930779 31.05,28.0720793 31.05,28.6220808 C31.05,29.4710832 30.36,30.1610852 29.513,30.1610852 L29.513,30.1610852 Z M37.341,17.0750482 C37.056,17.0750482 36.792,16.992048 36.563,16.8560476 C36.56,16.8540476 36.559,16.8510476 36.556,16.8500476 C36.552,16.8470476 36.547,16.8480476 36.543,16.8450476 C36.102,16.5740468 35.804,16.0920455 35.804,15.5370439 C35.804,14.6890415 36.494,14.0000395 37.342,14.0000395 C38.19,14.0000395 38.88,14.6890415 38.88,15.5370439 C38.88,16.3850463 38.189,17.0750482 37.341,17.0750482 L37.341,17.0750482 Z"></path>
                </g>
            </g>
        </g>
    </g>
</svg>
