<?xml version="1.0" encoding="UTF-8"?>
<svg width="62px" height="63px" viewBox="0 0 62 63" version="1.1" xmlns="http://www.w3.org/2000/svg" xmlns:xlink="http://www.w3.org/1999/xlink">
    <g id="页面-1" stroke="none" stroke-width="1" fill-rule="evenodd">
        <g id="编组-18" transform="translate(-673.000000, -6.000000)">
            <g id="编组-2" transform="translate(60.000000, 12.000000)">
                <g id="ic_pzlcsx_off" transform="translate(619.000000, 0.000000)">
                    <path d="M29.404812,25.1160519 L37.186857,17.3339847 C38.3253429,16.1938077 38.3253429,14.3396485 37.1860131,13.2003154 L35.8129096,11.827208 C34.7081816,10.7241648 32.7822921,10.7241648 31.6800959,11.828052 L24.5082253,19.0007869 C24.8449606,16.9322643 24.189213,14.8038213 22.6574472,13.2728952 C20.7425291,11.3579716 17.8950483,10.8018082 15.4011818,11.8575903 C15.1420898,11.9664599 14.9547333,12.1977023 14.9015646,12.4728301 C14.8475519,12.7488019 14.9344785,13.0323693 15.1328063,13.2306976 L17.6781537,15.7760522 L17.136339,17.1120258 L15.8121845,17.6589057 L13.2583977,15.1051116 C13.0600699,14.9067832 12.7748155,14.8173245 12.4996884,14.8730252 C12.2237174,14.9270381 11.9933196,15.1143951 11.8844503,15.3726439 C10.8303591,17.8673614 11.385677,20.7156942 13.2997512,22.6289299 C15.0323765,24.3624041 17.5287749,24.9700484 19.8361289,24.2915123 C19.7838041,24.5117833 19.7483583,24.7379621 19.7483583,24.9700484 C19.7483583,25.4080587 19.8538518,25.8275021 20.0353006,26.2123435 L14.8087303,31.4380847 L13.7748939,32.0085952 C13.7681423,32.011971 13.7647665,32.0204105 13.758015,32.0237863 C13.6938749,32.0609201 13.6474578,32.1183088 13.595133,32.1714777 C13.5571553,32.2102994 13.5115821,32.2389937 13.4820439,32.2837231 C13.4786681,32.2887868 13.4736045,32.2904747 13.4702287,32.2955384 L11.1308046,35.9895095 C10.9198176,36.3237139 10.9679227,36.7591923 11.2472695,37.0385399 L11.9755967,37.7660252 C12.1384786,37.9289076 12.3545293,38.0124587 12.5722679,38.0124587 C12.7275544,38.0124587 12.8845287,37.9694173 13.0237801,37.8816464 L16.7185847,35.5422158 C16.7236484,35.53884 16.7261803,35.5329323 16.731244,35.5295565 C16.7759732,35.5000182 16.8055114,35.4544449 16.8434891,35.4164671 C16.8958138,35.3641422 16.9532023,35.3177249 16.990336,35.2544287 C16.9945558,35.2476771 17.0021513,35.2443013 17.006371,35.2367057 L17.576036,34.2028664 L22.8009184,28.9779691 C23.1857587,29.1594185 23.6052009,29.2649123 24.0432099,29.2649123 C24.3369039,29.2649123 24.6196265,29.2083676 24.8930656,29.1256605 L32.5350153,36.7676318 C33.1038363,37.3372984 33.8608577,37.650404 34.6659842,37.650404 C35.4711106,37.650404 36.228132,37.3364544 36.796953,36.7676318 C37.365774,36.1979653 37.6788787,35.4417857 37.6788787,34.6366569 C37.6788787,33.8315282 37.3649301,33.0753486 36.7961091,32.506526 L29.404812,25.1160519 L29.404812,25.1160519 Z M14.4930937,21.4364279 C13.3900536,20.3333847 12.8929682,18.8142738 13.0879202,17.3221694 L15.0171855,19.2514402 C15.2585546,19.49281 15.6206083,19.5637018 15.9362449,19.4345774 L18.1077232,18.5374581 C18.3170224,18.4505312 18.4824362,18.284273 18.5676749,18.0741293 L19.4521325,15.8916734 C19.5795687,15.5777239 19.5069891,15.217357 19.2664639,14.978519 L17.3490139,13.0610636 C18.8394262,12.8694868 20.3602206,13.3631979 21.4641047,14.4670851 C22.8903769,15.8916734 23.3039114,18.0142088 22.5181958,19.8717438 C22.3840081,20.1882252 22.4557436,20.5544997 22.6988007,20.7975574 L22.7047083,20.8034651 L20.8311436,22.6770351 L20.825236,22.6711274 C20.582179,22.4280697 20.2167494,22.3563339 19.899425,22.490522 C18.0427392,23.2762399 15.9202099,22.8627042 14.4930937,21.4364279 L14.4930937,21.4364279 Z M16.8941259,32.4997744 L16.5143493,32.1208406 L21.1003631,27.5348139 L21.4792957,27.9137476 L16.8941259,32.4997744 L16.8941259,32.4997744 Z M14.3318996,34.0914649 L14.3698773,34.1294427 L14.9235072,34.6830742 L13.3098785,35.7050982 L14.3318996,34.0914649 L14.3318996,34.0914649 Z M23.2169848,27.2478707 L21.7282604,25.7591421 C21.5425918,25.5371831 21.4370983,25.2637432 21.4370983,24.9717363 C21.4370983,24.6417517 21.5653784,24.3311779 21.7991521,24.0974037 L32.8751264,13.0213979 C33.1072121,12.7884676 33.417785,12.6601871 33.7477687,12.6601871 C34.0777524,12.6601871 34.3883253,12.7884676 34.6212549,13.0213979 L35.9935145,14.3936614 C36.4745649,14.8755571 36.4745649,15.660431 35.9935145,16.1414828 L24.9166962,27.2174885 C24.4634961,27.6706899 23.6887518,27.6749096 23.2169848,27.2478707 L23.2169848,27.2478707 Z M28.2106255,26.3093978 L35.6027665,33.7024038 C35.8534191,33.9522131 35.9909826,34.2847296 35.9909826,34.6383448 C35.9918266,34.9919601 35.8534191,35.3253205 35.6027665,35.5759738 C35.1023053,36.0772803 34.229663,36.0772803 33.7283579,35.5759738 L26.3362168,28.1838118 L28.2106255,26.3093978 Z M33.9290074,33.8676432 C33.6573574,34.1391787 33.657264,34.5795181 33.9287987,34.8511689 C34.2003335,35.1228196 34.6406717,35.122913 34.9123216,34.8513775 C35.1839716,34.579842 35.184065,34.1395025 34.9125303,33.8678518 C34.6409955,33.5962011 34.2006573,33.5961077 33.9290074,33.8676432 Z M33.3629284,14.9607961 C33.5528167,14.7700633 33.8625456,14.7700633 34.0524339,14.9607961 C34.2440101,15.1523728 34.2440101,15.4612587 34.0524339,15.6511475 L34.0524339,15.6511475 L24.4288942,25.2772464 C24.237318,25.4671353 23.928433,25.4671353 23.7368568,25.2772464 C23.5469685,25.0865136 23.5469685,24.7776277 23.7368568,24.5868949 L23.7368568,24.5868949 Z" id="Shape"></path>
                </g>
            </g>
        </g>
    </g>
</svg>
