<?xml version="1.0" encoding="UTF-8"?>
<svg width="120px" height="94px" viewBox="0 0 120 94" version="1.1" xmlns="http://www.w3.org/2000/svg" xmlns:xlink="http://www.w3.org/1999/xlink">
    <!-- Generator: Sketch 59 (86127) - https://sketch.com -->
    <title>yiwanjie</title>
    <desc>Created with Sketch.</desc>
    <g id="pc" stroke="none" stroke-width="1" fill="none" fill-rule="evenodd">
        <g id="33_工单详情_已办结" transform="translate(-367.000000, -220.000000)">
            <g id="yiwanjie" transform="translate(367.000000, 220.000000)">
                <path d="M35.0463284,17.8860225 C34.4875908,18.3998041 33.9224311,18.9007411 33.3701158,19.4273673 C30.9888049,21.7058145 28.9296556,24.2986573 27.2496923,27.1340915 C18.6710065,41.3396122 20.3341369,59.4745066 31.3535368,71.8827093 C42.3729367,84.290912 60.1843261,88.0849604 75.3038925,81.244684 C90.4234588,74.4044076 99.332789,58.5215794 97.2880411,42.0531346 C95.2432931,25.5846898 82.7202919,12.3629336 66.3870068,9.42789263 C65.8307839,9.26585795 65.2499977,9.20495155 64.6722607,9.24806909 C64.6151621,9.26080749 64.555958,9.26080749 64.4988594,9.24806909 C64.0770371,9.06802439 63.6215407,8.9804289 63.1630272,8.99117822 C55.3805109,8.22590282 47.5537245,9.91702768 40.7814156,13.8271477 C39.4037028,14.6090069 38.0798942,15.4822485 36.8188749,16.4410116 C36.6904883,16.5180617 36.5859972,16.6292225 36.5170282,16.7621252 C36.4590556,16.9267661 36.3165481,17.0471603 36.1445366,17.0768164 C35.6564441,17.2309509 35.6114881,17.3593963 35.7078222,17.8988669 C35.7267497,17.9551457 35.7396662,18.01327 35.7463558,18.0722682 C35.7338132,18.1198175 35.7143375,18.1652608 35.6885554,18.2071359 C35.4059754,18.2970477 35.3545973,17.9759342 35.0463284,17.8860225 Z M37.2941229,18.3163145 C38.1482848,17.6740875 39.0088691,17.0318605 39.863031,16.3896335 C40.3061677,16.0813645 40.8006824,15.8308959 41.2695081,15.5483161 C44.4122303,13.6875177 47.8212545,12.31871 51.3781614,11.4894413 C55.920841,10.4046849 60.633341,10.230067 65.2438427,10.9756597 C73.1703741,12.1975533 80.4583922,16.0416833 85.9428195,21.8935191 C88.2430441,24.2963481 90.1892726,27.0145806 91.7228627,29.9663127 C99.9918835,45.7628409 95.4775984,65.2310363 81.1004278,75.7763658 C79.2137871,77.1693234 77.1937453,78.3718829 75.0699161,79.3664149 C60.8566749,86.038241 43.9617614,82.7708529 33.2609373,71.2807767 C30.9681496,68.834788 29.0408222,66.0703388 27.5386945,63.0731154 C21.5243198,51.3002648 22.415864,37.1833269 29.8635563,26.2606627 C30.2232035,25.7340366 30.5892728,25.2138327 30.9681868,24.7000511 C31.0965988,24.5265934 31.1540199,24.31069 31.1287436,24.0963577 C31.3177126,24.0446582 31.4960155,23.9598556 31.6553697,23.8458891 C32.1177732,23.3256852 32.5480653,22.77337 32.9398237,22.2916998 C32.9912019,22.0155422 32.7600002,21.7714959 32.9976242,21.6494728 C33.2397093,21.5599862 33.4922119,21.5017163 33.7490298,21.4760715 C34.108677,21.1356911 34.6160363,20.6989768 35.0720174,20.1916175 C35.7482998,19.5132795 36.4762014,18.8884437 37.2491671,18.3227368 L37.2941229,18.3163145 Z" id="形状" fill="#B2E4CA" fill-rule="nonzero"></path>
                <path d="M119.133112,36.1573811 L118.664286,36.3950051 C118.201883,36.60694 117.752324,36.8381418 117.283498,37.0372321 C116.0571,37.5220404 114.748846,37.7662478 113.430136,37.7565264 L109.917154,37.7565264 C108.549875,37.818631 107.208022,38.1480942 105.967458,38.7262892 C105.113868,39.1117646 104.29703,39.5739233 103.526995,40.1070772 C102.660186,40.7055769 101.876301,41.4160404 101.195711,42.2200041 C100.656068,42.8886948 100.180847,43.6069024 99.7763895,44.3650424 C99.4681205,44.9302021 99.1341625,45.4953619 98.8451603,46.0605217 C98.8130489,46.1183222 98.7680931,46.1697004 98.7359817,46.233923 C98.7157722,44.4689645 98.5763052,42.7073895 98.3185341,40.9612391 C98.5112022,40.6208588 98.7038703,40.2740563 98.909383,39.9465205 C99.5335848,38.9758752 100.322536,38.1217217 101.240667,37.4225683 C101.959602,36.884653 102.722223,36.4077462 103.520573,35.9968243 C104.941825,35.2054465 106.53158,34.7650713 108.157452,34.7123703 L111.843835,34.7123703 C113.655276,34.6336026 115.41961,34.1109186 116.981651,33.1902923 C117.077981,33.1230856 117.170199,33.0501693 117.257809,32.9719351 L116.988074,32.5031094 C116.795405,32.5994435 116.660538,32.6765107 116.519248,32.7407334 C116.056844,32.9590905 115.607285,33.1902923 115.13846,33.3829604 C113.913267,33.8726217 112.604475,34.1191109 111.285098,34.1086769 L107.778538,34.1086769 C106.411039,34.1792064 105.06998,34.5128358 103.828842,35.0912842 C102.975095,35.4789677 102.158262,35.9432724 101.388379,36.4784946 C100.045284,37.3776799 98.9215113,38.5672984 98.1001769,39.9593651 C97.8498199,38.5715386 97.5282821,37.1975002 97.1368364,35.8426898 C97.6954103,35.0733597 98.356613,34.3840668 99.1020511,33.7939856 C99.8208715,33.2540274 100.583485,32.7749774 101.381957,32.3618194 C102.806068,31.5717593 104.397574,31.1315088 106.025258,31.0773654 L109.705219,31.0773654 C111.51666,30.9985977 113.280995,30.4759137 114.843035,29.5552873 C114.942032,29.4917432 115.034531,29.4186046 115.119193,29.3369302 L114.849458,28.8681045 C114.656789,28.9708607 114.521922,29.0415058 114.380632,29.1057284 C113.924651,29.3240856 113.468669,29.5552873 112.999844,29.7479554 C111.773446,30.2327637 110.465192,30.4769711 109.146482,30.4672497 L105.639922,30.4672497 C104.302807,30.5584659 102.995183,30.902807 101.78656,31.4819684 C100.932971,31.8674438 100.116132,32.3296025 99.3460973,32.8627565 C98.4792882,33.4612562 97.695403,34.1717197 97.0148133,34.9756834 L96.9634351,35.0527506 C96.5881028,33.8546854 96.1595256,32.6739554 95.6789811,31.5140797 C96.099385,31.0249256 96.5661008,30.5775667 97.0726137,30.1782475 C97.7915482,29.6403322 98.5541695,29.1634254 99.3525196,28.7525036 C100.776631,27.9624434 102.368136,27.522193 103.995821,27.4680496 L107.675782,27.4680496 C109.497848,27.3924098 111.273327,26.8696911 112.845709,25.9459715 C112.942763,25.8800563 113.033109,25.8047685 113.115445,25.721192 L112.845709,25.2587886 C112.653041,25.3551226 112.518173,25.4321899 112.376883,25.4964126 C111.920902,25.7083475 111.464921,25.9459715 110.996095,26.1386396 C109.77051,26.626263 108.461701,26.8705741 107.142733,26.8579339 L103.636174,26.8579339 C102.268675,26.9284634 100.927616,27.2620928 99.6864777,27.8405412 C98.8327304,28.2282247 98.0158981,28.6925294 97.246015,29.2277515 C96.5657784,29.7070904 95.9372902,30.2559415 95.3707121,30.8654305 C95.0752877,30.2232035 94.7798632,29.5103315 94.4394829,28.8424153 C94.2339702,28.43139 94.0027685,28.0396316 93.7972559,27.6350286 C94.161113,27.2379074 94.5562832,26.8706569 94.9789536,26.5368203 C95.7101964,26.0045264 96.4858683,25.5361151 97.2973932,25.1367655 C98.7194118,24.3416 100.312181,23.9009998 101.940694,23.8523115 L105.620655,23.8523115 C107.432097,23.7735437 109.196431,23.2508598 110.758471,22.3302334 C110.854801,22.2630268 110.947019,22.1901105 111.034629,22.1118762 L110.764894,21.6430505 C110.572226,21.7458068 110.437358,21.8164518 110.296068,21.8806745 C109.840087,22.0990317 109.384106,22.3302334 108.91528,22.5229015 C107.690088,23.0125628 106.381295,23.2590521 105.061918,23.2486181 L101.548936,23.2486181 C100.187719,23.3198445 98.8530991,23.6534994 97.6185066,24.2312253 C96.7647594,24.6189088 95.9479271,25.0832135 95.178044,25.6184357 C94.5697319,26.0494366 94.0021988,26.5352794 93.4825647,27.0698688 C92.9045604,26.0679946 92.2751779,25.0853874 91.6072618,24.1413136 C92.0004404,23.7031951 92.4301375,23.2992797 92.8917158,22.9339268 C93.6098409,22.3962405 94.3701297,21.9173015 95.1651995,21.5017605 C96.5893109,20.7117004 98.1808163,20.2714499 99.8085008,20.2173065 L103.494884,20.2173065 C105.306325,20.1385388 107.070659,19.6158548 108.6327,18.6952284 C108.729637,18.6315765 108.819994,18.5584299 108.902435,18.4768713 L108.639122,18.0144678 L108.170297,18.2520919 C107.707893,18.4640268 107.258334,18.6952285 106.789508,18.8943189 C105.563111,19.3791272 104.254857,19.6233346 102.936146,19.6136131 L99.4231645,19.6136131 C98.0568613,19.6832612 96.7173353,20.0192335 95.4798907,20.6026427 C94.6263013,20.9881181 93.8094625,21.4502768 93.0394281,21.9834308 C92.3648287,22.4601187 91.740761,23.004564 91.1769697,23.6082651 C90.5242887,22.695542 89.8254948,21.8166908 89.0833096,20.9751344 C89.5703138,20.3511396 90.1309792,19.7883178 90.7530999,19.2989219 C91.4698137,18.7610637 92.2302972,18.2841503 93.0265835,17.8731779 C94.4506949,17.0831177 96.0422003,16.6428673 97.6698848,16.5887239 L101.356268,16.5887239 C103.167709,16.5099562 104.932043,15.9872722 106.494084,15.0666458 C106.591138,15.0007306 106.681483,14.9254428 106.763819,14.8418663 L106.494084,14.379463 L106.031681,14.6170869 C105.569277,14.8290219 105.119718,15.0666458 104.650892,15.2593139 C103.424495,15.7441222 102.116241,15.9883296 100.79753,15.9786082 L97.2973932,15.9786082 C95.9588649,16.0840151 94.6518993,16.4390741 93.4440311,17.0254382 C92.5916029,17.4157034 91.774995,17.8798806 91.0035684,18.4126486 C90.1432525,19.0046556 89.365727,19.7087482 88.6915511,20.5063087 C87.9636039,19.7130516 87.2074304,18.9461675 86.4244897,18.2071359 C87.043332,17.2534509 87.8209686,16.4128214 88.7236625,15.7217174 C89.4446337,15.1943158 90.2070891,14.7261037 91.0035684,14.3216625 C92.425587,13.526497 94.0183567,13.0858968 95.6468697,13.0372084 L99.3332528,13.0372084 C101.144694,12.9584407 102.909028,12.4357568 104.471069,11.5151305 C104.56652,11.4494668 104.656705,11.3764598 104.740804,11.2967732 L104.471069,10.8279475 C104.278401,10.9307038 104.143533,11.0013488 104.002243,11.0655715 C103.546262,11.2839286 103.096703,11.5151304 102.621455,11.7077986 C101.396263,12.1974598 100.08747,12.4439491 98.7680931,12.4335151 L95.2615335,12.4335151 C93.8940349,12.5040446 92.5529757,12.837674 91.3118374,13.4161224 C90.4594092,13.8063876 89.6428012,14.2705647 88.8713746,14.8033327 C88.0255173,15.3990199 87.2593311,16.100458 86.5914688,16.8905705 C86.361062,17.1671106 86.1466372,17.4565841 85.9492418,17.757577 C85.1999769,17.0682534 84.4228822,16.4131818 83.6179577,15.7923624 C83.8427372,15.3941816 84.0610943,14.9960009 84.3051406,14.6170869 C84.9293425,13.6464417 85.7182935,12.7922881 86.6364247,12.0931348 C87.3667133,11.559064 88.140036,11.0864779 88.9484419,10.6802353 C90.3725533,9.89017516 91.9640587,9.44992468 93.5917432,9.39578125 L97.2781264,9.39578125 C99.0900319,9.31453695 100.854279,8.78967354 102.415942,7.86728094 C102.535599,7.82525962 102.649856,7.76920929 102.756323,7.70030197 L102.486587,7.27643213 L102.017762,7.5140561 C101.56178,7.72599102 101.112222,7.95719275 100.636974,8.1562831 C99.4105757,8.6410914 98.1023217,8.8852988 96.7836115,8.87557735 L93.251363,8.87557735 C91.8728942,8.93652281 90.5199045,9.26822351 89.2695554,9.85176247 C88.4192308,10.2436422 87.6029355,10.7054935 86.8290928,11.2325505 C85.9622837,11.8310502 85.1783984,12.5415138 84.4978087,13.3454774 C83.9754084,13.9903281 83.5111888,14.68021 83.1105983,15.4070262 C82.3206591,14.8161773 81.5050308,14.2510175 80.6765579,13.7115468 C80.8949151,13.3197884 81.1132723,12.9280299 81.3187849,12.5426937 C81.6077871,12.0353344 81.890367,11.5151305 82.2050582,11.0270378 C82.8292601,10.0563926 83.6182111,9.202239 84.5363423,8.5030857 C85.2513782,7.95717993 86.0120044,7.47373108 86.809826,7.05807488 C88.2339374,6.26801472 89.8254428,5.82776428 91.4531273,5.77362087 L95.1395104,5.77362087 C96.9504304,5.69174473 98.7140298,5.16927843 100.277327,4.2515429 C100.37438,4.18562771 100.464726,4.11033984 100.547062,4.0267634 L100.277327,3.56435994 C100.084658,3.660694 99.9497908,3.73776124 99.8085008,3.80198391 C99.3525195,4.01391883 98.9029606,4.25154281 98.4277127,4.44421101 C97.2013148,4.9290193 95.8930608,5.17322671 94.5743506,5.16350525 L91.0613689,5.16350525 C89.6934149,5.23096209 88.3517735,5.56473626 87.1116727,6.14611252 C86.2613481,6.53799227 85.4450527,6.99984361 84.67121,7.52690067 C83.8027591,8.12582119 83.0186589,8.83863952 82.3399259,9.64624979 C81.7988171,10.320725 81.3235406,11.045468 80.9206042,11.8105549 L80.06002,13.3711665 C79.1673244,12.8252736 78.2489397,12.3179143 77.3177107,11.8490885 C77.6325426,11.4635725 77.9221475,11.0581256 78.1847171,10.6352794 C78.5315197,10.0701196 78.8269441,9.47927073 79.1673244,8.90768873 C79.5077047,8.33610673 79.7389065,7.88654775 80.0535977,7.392033 C80.6774286,6.42311613 81.4639464,5.56924458 82.3784595,4.86808076 C83.097394,4.33016547 83.8600153,3.85325867 84.6583655,3.44233683 C86.0833233,2.65860739 87.675872,2.22908181 89.3016668,2.18999412 L92.9816276,2.18999412 C94.7925477,2.10811794 96.556147,1.58565161 98.1194437,0.667916053 C98.2148948,0.602252445 98.3050799,0.529245416 98.3891791,0.449558893 L98.1515551,3.12638804e-13 C97.958887,0.0963340549 97.8240193,0.173401299 97.6827294,0.237623972 C97.2267482,0.455981133 96.7707671,0.687182864 96.3019413,0.879850974 C95.0767489,1.36951229 93.7679562,1.6160016 92.4485792,1.60556755 L88.9484419,1.60556755 C87.6141883,1.68203208 86.3065822,2.01111297 85.0950798,2.57533034 C84.2413326,2.96301381 83.4245002,3.42731853 82.6546171,3.96254073 C81.787808,4.56104044 81.0039228,5.27150395 80.3233331,6.07546761 C79.7836899,6.74415826 79.3084687,7.46236592 78.9040114,8.22050587 C78.5957424,8.77924339 78.2617844,9.35082538 77.9727822,9.9095629 C77.6403939,10.5056645 77.2464867,11.0653141 76.7975068,11.5793531 C74.7299584,10.5763313 72.5816097,9.74921703 70.3752366,9.10677908 C60.357256,6.23523667 49.6065024,7.49581343 40.5245248,12.6069163 C39.1117256,13.3850183 37.7534915,14.2583221 36.4592278,15.2207803 C35.4905791,15.8412953 34.6239851,16.608231 33.8903197,17.4942639 L34.134366,17.7190434 C34.5009622,17.5534509 34.8425273,17.3372704 35.1490847,17.0768164 C35.9069126,16.4602785 36.6797257,15.8672888 37.4675242,15.2978476 C52.3389786,4.77776542 72.5535021,6.145605 85.8721745,18.5732053 L86.0841095,18.7658734 C88.4552895,21.0457362 90.5348233,23.6106384 92.2751779,26.4019526 C94.3989137,29.7477754 95.9851918,33.40575 96.9762796,37.2427447 C100.262765,50.242471 96.5300767,64.0150082 87.1290629,73.5761174 C77.7280491,83.1372267 64.0205002,87.1019269 50.9671361,84.0354053 C47.7649793,83.2865613 44.667452,82.1454805 41.7447562,80.6380243 L40.9997728,80.2334213 C39.4193725,79.3589062 37.9040711,78.3715994 36.46565,77.279177 L36.5041837,77.279177 C36.2280261,77.0672421 35.9518684,76.8553072 35.6821331,76.63695 C34.5309923,75.7062467 33.4351994,74.7090965 32.400353,73.6505943 C30.7038355,71.929726 29.1629048,70.0621267 27.7955853,68.0696416 C26.6918444,66.4375939 25.7210954,64.7194542 24.8927192,62.9318255 C24.0581204,61.1521592 23.3582681,59.3123635 22.7990591,57.4279399 C18.9095573,44.0533239 22.549596,29.6208899 32.3168635,19.6906804 C32.6829329,19.324611 33.0554246,18.9585416 33.4279162,18.6053167 C33.6915258,18.3909573 33.7691911,18.0213776 33.6141621,17.7190434 C33.3326394,17.8027649 33.0823023,17.9681661 32.8948679,18.1942914 C30.0356015,20.8528059 27.6049159,23.9377401 25.6890807,27.3396041 C22.7850336,32.432596 21.0723891,38.1172583 20.67971,43.9668617 L20.3457519,44.0375066 C20.1203381,44.0952428 19.8904665,44.1339128 19.658569,44.1531074 L15.6446502,44.1531074 C14.1969871,44.1845499 12.7714264,44.5147028 11.45733,45.1228702 C10.6058613,45.4789658 9.78712186,45.9087503 9.01044503,46.4073243 C7.71807694,47.28079 6.6239909,48.4164513 5.79930992,49.7404825 C5.50388552,50.2221528 5.23415017,50.7230899 4.95799257,51.2111824 L4.00107435,52.913084 C3.28636789,54.0800532 2.33726974,55.0860097 1.21380909,55.8673282 C0.841317443,56.1177968 0.468825795,56.3682653 0.102756295,56.6251561 C0.0578004329,56.6251561 0.038533622,56.7150679 -7.10542736e-14,56.7792906 L0.263313114,57.1838936 C0.423869842,57.1068264 0.56515985,57.049026 0.693605195,56.9719587 C2.35166232,56.0062131 3.73381184,54.6306979 4.70752403,52.9773067 C4.98368162,52.508481 5.23415017,52.0203885 5.51030785,51.5451404 C5.78646553,51.0698924 6.11400123,50.4533545 6.44795926,49.9267283 C7.07216112,48.956083 7.86111212,48.1019295 8.77924329,47.4027762 C9.49595716,46.864918 10.2564407,46.3880046 11.052727,45.9770322 C12.4777671,45.1892453 14.0687155,44.7491489 15.6960283,44.6925781 L19.6714136,44.6925781 C20.0061395,44.680822 20.3392102,44.639994 20.6668654,44.570555 C20.609071,45.6165874 20.609071,46.6650128 20.6668654,47.7110451 L17.7896884,47.7110451 C16.3428003,47.7486193 14.9184641,48.0784886 13.6023682,48.6808079 C12.7477127,49.0782059 11.9290331,49.5487855 11.1554833,50.0872851 C9.8631152,50.9607508 8.76902916,52.0964121 7.94434818,53.4204433 C7.64892378,53.9021136 7.37918842,54.3966284 7.10303083,54.8911432 C6.82687324,55.3856581 6.46080383,56.0150405 6.14611252,56.5673557 C5.43381511,57.7361653 4.48428521,58.7425795 3.35884726,59.5216 C2.98635561,59.7784908 2.61386396,60.0225371 2.24779455,60.2794279 C2.24779455,60.2794279 2.19641636,60.3629174 2.1514605,60.4207178 L2.41477361,60.8317431 C2.57533034,60.7546758 2.71662035,60.6968754 2.84506569,60.6198082 C4.50338472,59.6465824 5.88687943,58.2675078 6.86540686,56.6123116 C7.14156445,56.1434859 7.392033,55.6618157 7.66176835,55.1865676 C7.9315037,54.7113196 8.26546173,54.0947817 8.605842,53.5681555 C9.22286725,52.5888181 10.0051423,51.7239695 10.9178593,51.012092 C11.638212,50.4743648 12.4006376,49.9954327 13.1977653,49.5799257 C14.6218767,48.7898656 16.213382,48.3496151 17.8410665,48.2954717 L20.7310882,48.2954717 C20.7385146,49.0853274 20.7878212,49.8742335 20.8788003,50.6588671 C20.8788003,50.8772243 20.9173339,51.0891592 20.9494453,51.3010941 L19.9090375,51.3010941 C18.4613745,51.3325366 17.0358137,51.6626894 15.7217174,52.2708569 C14.8232968,52.6557279 13.9631843,53.1244893 13.1528093,53.6709119 C11.8620913,54.5436889 10.7682757,55.6768819 9.94167419,56.9976478 C9.63982746,57.479318 9.37651444,57.9802551 9.0939346,58.4683476 C8.81135477,58.9564402 8.4517076,59.5986672 8.13701629,60.1445602 C7.44511562,61.3232798 6.5103116,62.3412748 5.39470698,63.1309158 L4.25796514,63.8887437 C4.21943151,63.8887437 4.2001647,63.9786555 4.15520884,64.0428782 L4.41852186,64.4474812 C4.57907859,64.3704139 4.7203686,64.3126135 4.84881395,64.2355463 C6.50766816,63.2680161 7.88989083,61.8902166 8.86273287,60.234472 C9.14531279,59.7656463 9.39578134,59.2775538 9.6655166,58.8023058 C9.93525186,58.3270577 10.2756323,57.7105199 10.6095903,57.1517822 C11.2352217,56.1861002 12.021529,55.3346292 12.9344521,54.6342523 C13.6532725,54.0942941 14.4158857,53.6152441 15.2143581,53.2020861 C16.6365512,52.4130045 18.2257399,51.972786 19.8512371,51.9176321 L20.9558676,51.9176321 C21.0907352,52.9323507 21.2641365,53.9406471 21.4824937,54.9296768 C20.1837219,55.012257 18.9107347,55.3299597 17.7254656,55.8673282 C16.8732875,56.2530735 16.0566584,56.7129646 15.285003,57.2416941 C13.9926349,58.1151597 12.8985489,59.250821 12.073868,60.5748523 C11.7720212,61.0501003 11.5087082,61.5510373 11.2261283,62.0455521 L10.2756323,63.7474538 C9.56889399,64.9222618 8.61843626,65.9318494 7.48836705,66.7081203 L6.42227021,67.4659482 C6.37731434,67.4659482 6.35804753,67.55586 6.31309158,67.6200827 L6.57640469,68.0311079 C6.73696142,67.9476185 6.87825143,67.8962403 7.00669678,67.819173 C8.66501577,66.8459472 10.0485104,65.4668726 11.0270378,63.8116764 C11.3031954,63.3428507 11.553664,62.8547582 11.8233994,62.3859325 C12.0931349,61.9171068 12.4270928,61.2941466 12.7674731,60.7675204 C13.391304,59.7986036 14.1778218,58.944732 15.0923349,58.2435682 C15.8006126,57.7047073 16.5524673,57.2256685 17.3401294,56.811402 C18.6707986,56.0896057 20.1445128,55.6707376 21.655895,55.5847484 C21.9063635,56.6315784 22.1953657,57.6719862 22.5293237,58.6931271 C21.605616,58.8534547 20.7058191,59.1296513 19.8512371,59.5151777 C18.9978529,59.9000732 18.1792001,60.3577453 17.4043522,60.8831212 C16.1134635,61.7583448 15.0197099,62.893661 14.1932171,64.2162795 C13.8913704,64.6979497 13.6280573,65.1988868 13.3454774,65.6869793 C13.0628975,66.1750718 12.7032504,66.8172988 12.3885592,67.3631919 C11.6882995,68.5326273 10.7495302,69.5414213 9.63340522,70.3238584 L8.52235251,71.0816863 C8.48381889,71.0816863 8.46455208,71.1715981 8.41959622,71.2358208 L8.68290924,71.6404238 C8.84346597,71.5633566 8.98475598,71.5055562 9.11320141,71.4284889 C10.7547054,70.4537528 12.120687,69.0767196 13.0821644,67.4274146 C13.3647443,66.9521665 13.6152129,66.4704963 13.8849481,65.9952483 C14.1546834,65.5200003 14.4886415,64.9034624 14.8290219,64.3768363 C15.4380812,63.4087401 16.2093221,62.5527713 17.1089278,61.8464618 C17.8278623,61.3085465 18.5904835,60.8316397 19.3888336,60.4207178 C20.4223357,59.8622424 21.5427122,59.4822698 22.702725,59.2968205 C23.0687944,60.3693396 23.486242,61.4161696 23.9422232,62.4501552 C23.2418331,62.5959124 22.5576975,62.8110494 21.8999413,63.0923822 C21.0464181,63.4795041 20.2277728,63.9393206 19.4530564,64.466748 C18.1606883,65.3402136 17.0666023,66.4758749 16.2419213,67.7999062 C15.9400746,68.2751542 15.6767615,68.7760912 15.3941816,69.2706061 L14.4372634,70.9403964 C13.7305251,72.1152044 12.7800673,73.124792 11.6499981,73.9010629 C11.2839287,74.1579537 10.9114371,74.402 10.5389453,74.6588908 C10.4974244,74.7050331 10.4628124,74.7569512 10.436189,74.8130252 L10.6995022,75.2240506 C10.8600589,75.1405611 11.0013489,75.0891829 11.1297942,75.0121157 C12.7875057,74.0402851 14.1692293,72.6607723 15.1437131,71.0046191 C15.426293,70.5357934 15.6767615,70.0477009 15.9464969,69.5788751 C16.2162322,69.1100493 16.5501903,68.4870892 16.8905705,67.960463 C17.5282015,66.9860629 18.3325865,66.1316756 19.2668105,65.4365108 C19.9856309,64.8965525 20.7482441,64.4175026 21.5467165,64.0043445 C22.402094,63.5410457 23.3189266,63.2015581 24.269759,62.9960481 C24.7578515,64.0493005 25.2951815,65.0790045 25.8817488,66.0851601 C25.2560827,66.2452221 24.6457452,66.4601296 24.057824,66.7273871 C23.1895603,67.1186594 22.3559715,67.5827191 21.5659833,68.1145975 C20.2709035,68.9981078 19.1767149,70.1448175 18.3548482,71.479867 C18.0530014,71.9615373 17.7832661,72.456052 17.5071085,72.9505669 C17.2309509,73.4450817 16.8648815,74.0744642 16.5501903,74.6267794 C15.8378928,75.795589 14.8883629,76.8020032 13.762925,77.5810237 L12.6004941,78.3452739 C12.5569574,78.3898169 12.5221095,78.4420887 12.4977377,78.4994084 L12.7610508,78.9040114 C12.9216076,78.8269441 13.0628976,78.7691437 13.1913429,78.6920765 C14.8506135,77.7229002 16.2345481,76.3455978 17.2116841,74.6910021 C17.494264,74.2157541 17.7447326,73.7340839 18.0144678,73.2588359 C18.2842031,72.7835878 18.6181612,72.16705 18.9521193,71.6404238 C19.5763212,70.6697785 20.3652722,69.8156249 21.2834033,69.1164716 C22.0001172,68.5786134 22.7606007,68.1017001 23.556887,67.6907277 C24.3667134,67.2526492 25.230333,66.9223147 26.1257951,66.7081203 C26.4533308,67.2540133 26.7680221,67.8063285 27.121247,68.3329547 C27.4744719,68.8595808 27.763474,69.2641838 28.0910098,69.720165 C27.3906197,69.8659222 26.706484,70.0810592 26.0487278,70.3623921 C25.1952046,70.749514 24.3765593,71.2093305 23.6018429,71.7367579 C22.3096435,72.6077705 21.2154937,73.7413097 20.3907078,75.0634938 C20.0952834,75.545164 19.825548,76.0461011 19.5493905,76.5341936 L18.6245835,78.2104062 C17.9142319,79.3824718 16.9644322,80.3913605 15.8373183,81.1710728 C15.4712489,81.4279635 15.092335,81.6720098 14.7262655,81.9289006 C14.6827288,81.9734437 14.647881,82.0257155 14.6235092,82.0830351 L14.8868223,82.4876381 C15.047379,82.4105709 15.188669,82.3527705 15.3171144,82.2757032 C16.9759686,81.3081731 18.3581912,79.9303735 19.3310332,78.2746289 C19.6071908,77.8058032 19.8640817,77.3177107 20.133817,76.8424626 C20.4035524,76.3672146 20.7375104,75.7506767 21.0714684,75.2304728 C21.6956703,74.2598275 22.4846214,73.405674 23.4027526,72.7065207 C24.1212919,72.1647298 24.8863882,71.6876191 25.6890807,71.2807767 C26.5940567,70.7944365 27.5656591,70.4438806 28.5726801,70.2403689 C29.3302861,71.248194 30.1383838,72.2170538 30.9938759,73.143235 C30.032123,73.2977852 29.0949538,73.5785041 28.2066106,73.9781301 C27.3546371,74.3633305 26.5361862,74.8187415 25.7597256,75.3396515 C24.4688369,76.214875 23.3750834,77.3501912 22.5485905,78.6728097 C22.2467438,79.1544799 21.9770085,79.6489947 21.700851,80.1435095 C21.4246934,80.6380244 21.0586239,81.2674068 20.7439326,81.819722 C20.0316352,82.9885316 19.0821053,83.9949458 17.9566674,84.7739663 L16.8456147,85.5382164 C16.802078,85.5827595 16.7672302,85.6350313 16.7428584,85.6923509 L17.0061714,86.0969539 C17.1667281,86.0198867 17.3080181,85.9620863 17.4364635,85.885019 C19.0939075,84.9156575 20.4757135,83.5382733 21.4503824,81.8839448 C21.7329623,81.4086967 21.9834309,80.9270265 22.2531661,80.4517785 C22.5229014,79.9765305 22.8568595,79.3599926 23.1908176,78.8333664 C23.8150195,77.8627211 24.6039705,77.0085676 25.5221017,76.3094142 C26.2388155,75.771556 26.999299,75.2946427 27.7955853,74.8836702 C28.9593658,74.2550842 30.2322719,73.8540316 31.5461911,73.7019725 L31.6104138,73.7726175 C32.5850691,74.7721281 33.60966,75.7216966 34.6802589,76.6176832 L34.4811686,76.6176832 C33.0338955,76.6522244 31.6089567,76.9822332 30.2938484,77.587446 C29.4240785,77.9807346 28.5903002,78.4491977 27.8020076,78.9875009 C26.5098082,79.8585135 25.4156584,80.9920528 24.5908725,82.3142368 C24.2954481,82.7959071 24.0257127,83.2968442 23.7495551,83.7849367 L22.7926368,85.4097711 C22.0822853,86.5818367 21.1324855,87.5907253 20.0053716,88.3704376 C19.6393022,88.6273284 19.2603883,88.8713747 18.8943189,89.1282655 C18.8507822,89.1728086 18.8159343,89.2250803 18.7915625,89.2824 L19.0548756,89.687003 C19.2154323,89.6099358 19.3567223,89.5521354 19.4851677,89.4750681 C21.1440219,88.507538 22.5262446,87.1297384 23.4990866,85.4739938 C23.7752442,85.0051681 24.0321351,84.5170755 24.3018703,84.0418275 C24.5716056,83.5665795 24.9055637,82.9500416 25.2395218,82.4298377 C25.8712641,81.4644795 26.6667285,80.6168535 27.5900727,79.9251523 C28.305696,79.3838376 29.0662942,78.9047037 29.8635563,78.4929861 C31.2838942,77.7225035 32.8659176,77.2978435 34.4811686,77.253488 L35.4316646,77.253488 C36.8007676,78.3585043 38.2449725,79.3670872 39.7538524,80.2719549 L36.5427173,80.2719549 C35.0950543,80.3033973 33.6694935,80.6335502 32.3553972,81.2417177 C31.4884212,81.6130433 30.6547729,82.057799 29.8635563,82.5711276 C28.5726676,83.4463512 27.478914,84.5816674 26.6524212,85.9042858 C26.3569968,86.3859561 26.0872614,86.8804709 25.8111038,87.3749857 C25.5349462,87.8695006 25.1688768,88.498883 24.8541856,89.0511983 C24.1418882,90.2200079 23.1923583,91.226422 22.0669204,92.0054425 L20.9558676,92.7696927 C20.9123309,92.8142358 20.8774831,92.8665075 20.8531113,92.9238272 L21.1164243,93.3284302 C21.276981,93.251363 21.418271,93.1935625 21.5467165,93.1164953 C23.2041604,92.1471338 24.5859665,90.7697495 25.5606353,89.1154209 C25.8432152,88.6401729 26.0936838,88.1585027 26.363419,87.6832547 C26.6331543,87.2080067 26.9671124,86.5914688 27.3010705,86.0648427 C27.9252724,85.0941974 28.7142234,84.2400438 29.6323546,83.5408904 C30.3490684,83.0030322 31.109552,82.5261189 31.9058383,82.1151465 C33.3299497,81.3250863 34.921455,80.8848358 36.5491395,80.8306924 L40.5245248,80.8306924 C40.5907338,80.8370963 40.6574062,80.8370963 40.7236152,80.8306924 C44.6663416,83.0161587 48.9577312,84.5023919 53.4075988,85.2235252 C61.1503279,86.5274094 69.1066546,85.4292122 76.2066579,82.0766129 C78.5492707,80.987723 80.774388,79.6621212 82.8472852,78.1204944 C92.6681781,70.9190722 98.5429983,59.5284354 98.7167149,47.351398 C98.8515825,47.1651521 99.005717,46.9917508 99.1277401,46.7926605 C99.4745427,46.2275007 99.7699671,45.6366518 100.110347,45.0586476 C100.450728,44.4806433 100.68193,44.0375066 100.996621,43.5429918 C101.645374,42.5673486 102.457995,41.7112716 103.39855,41.0126173 C104.125035,40.4669047 104.896307,39.9835169 105.704145,39.5676065 C107.128256,38.7775464 108.719762,38.3372959 110.347446,38.2831525 L114.027407,38.2831525 C115.834554,38.2099765 117.597225,37.7010051 119.165223,36.7996081 C119.268019,36.7431513 119.364845,36.6764488 119.454225,36.6005177 C119.364313,36.46565 119.287246,36.3372046 119.18449,36.1573811 L119.133112,36.1573811 Z" id="路径" fill="#B2E4CA" fill-rule="nonzero"></path>
                <path d="M41.7576006,17.8539111 L44.3265087,19.9283043 L47.1009294,18.1236464 L45.9256541,21.2127583 L48.4945621,23.2871517 L45.2063598,23.1330172 L44.0567734,26.2221291 L43.1769224,23.010994 L39.863031,22.8504373 L42.6374517,21.0457794 L41.7576006,17.8346443 M31.3920566,28.2194551 L34.6031917,29.0093944 L36.3372047,26.1900178 L36.5876731,29.4846424 L39.7988082,30.2488925 L36.74823,31.5333465 L36.9986985,34.8279712 L34.8408157,32.304019 L31.7966596,33.5884731 L33.5370949,30.7690964 L31.3920566,28.2644111 M55.7966832,12.6326054 L57.2609609,15.6061165 L60.5363187,15.1308685 L58.166501,17.4300412 L59.6307785,20.3842856 L56.6958011,18.8557853 L54.3324057,21.1613802 L54.91041,17.8924447 L51.9818548,16.3575222 L55.2507903,15.8822741 L55.8159501,12.6326054 M69.6174087,13.762925 L69.6880537,17.0575496 L72.8927665,18.0080456 L69.7586986,19.112676 L69.8229214,22.4008784 L67.819173,19.7870144 L64.6786829,20.8723781 L66.605364,18.1429133 L64.5438152,15.5033602 L67.6971499,16.4474339 L69.623831,13.762925 M26.1835955,40.6529702 L29.4332642,40.0107432 L29.8186004,36.7161186 L31.4370125,39.6061401 L34.6866812,38.9639131 L32.4324644,41.3915313 L34.0572988,44.2815529 L31.0580986,42.9007647 L28.8038817,45.3412275 L29.1827957,42.0466028 L26.1835955,40.6529702 M78.6728097,75.4424077 L76.1039016,73.3680145 L73.3294809,75.1726724 L74.5047563,72.0835605 L71.9358482,70.0091671 L75.2240506,70.1633016 L76.399326,67.0741897 L77.279177,70.2853248 L80.5930684,70.4458816 L77.8186477,72.2505395 L78.6984987,75.4616746 M89.0126646,65.0575969 L85.8015295,64.2676577 L84.0675166,67.0870343 L83.817048,63.7924096 L80.605913,63.0281595 L83.650069,61.7437055 L83.4060227,58.4490808 L85.551061,60.9730331 L88.595217,59.688579 L86.8547818,62.5079556 L88.9998201,65.0126409 M64.6080379,80.6637134 L63.1437604,77.6837801 L59.8684026,78.159028 L62.2382203,75.8598553 L60.7739426,72.8991888 L63.7089201,74.4341113 L66.0723156,72.1349386 L65.513578,75.4038741 L68.4421332,76.9387967 L65.1731978,77.4140447 L64.6080379,80.6637134 M50.7873126,79.5333938 L50.7166676,76.2387692 L47.5055325,75.2882733 L50.6396003,74.1836428 L50.5753776,70.8890182 L52.5791259,73.5093044 L55.719616,72.4239408 L53.792935,75.1534056 L55.7966832,77.7929586 L52.6369263,76.8488849 L50.7102453,79.5333938 M94.2211258,52.6240819 L90.971457,53.2663089 L90.5861208,56.5609334 L88.9612865,53.6709119 L85.7180401,54.3131389 L87.9722569,51.8790985 L86.3795339,49.0019215 L89.3787341,50.3762873 L91.6329508,47.9422469 L91.254037,51.2368715 L94.2532371,52.6112373" id="形状" fill="#B2E4CA" fill-rule="nonzero"></path>
                <path d="M85.8400632,38.4693984 L78.634276,26.7230662 C77.7808266,25.3740238 76.0041812,24.9569977 74.639624,25.7854148 L72.4945858,27.1019802 C64.921818,22.1401202 55.16604,21.992683 47.4467896,26.7234375 C39.7275392,31.4541921 35.4305227,40.2139062 36.4142719,49.2138564 L34.0380319,50.7295121 C32.6729751,51.5700136 32.2450502,53.3563846 33.0811136,54.7241642 L40.267634,66.4319627 C41.1104473,67.7931681 42.8916693,68.2227232 44.2622861,67.3953032 L46.5357697,66.0016705 C54.148761,71.1827446 64.0933328,71.4146547 71.9395649,66.5940938 C79.785797,61.773533 84.0733326,52.7977138 82.8922412,43.6650149 L84.8831449,42.4447836 C85.5389848,42.0445742 86.0089469,41.4001895 86.189615,40.6534281 C86.370283,39.9066668 86.2468528,39.1187194 85.8464854,38.4629761 L85.8400632,38.4693984 Z M48.8092534,27.8790749 C55.6416445,23.9374312 64.0759523,24.0186013 70.8312178,28.0910098 L38.0776398,48.1991377 C37.474502,39.9308461 41.6404254,32.0427662 48.8092534,27.8790749 L48.8092534,27.8790749 Z M76.8617294,59.8619803 C70.0735685,68.7844345 57.5811366,71.0177184 48.1220704,64.9997965 L81.2545622,44.6925781 C81.7611473,50.1185855 80.2015414,55.5359226 76.8874186,59.8619803 L76.8617294,59.8619803 Z M84.5684536,40.2933231 C84.498491,40.6254361 84.2999245,40.9163591 84.0161385,41.1025292 L43.3952796,66.0337819 C43.1066559,66.2154946 42.7576122,66.2749563 42.4251028,66.1990574 C42.0925934,66.1231586 41.8039222,65.9181315 41.622733,65.6291789 L34.4041014,53.8571577 C34.2223887,53.568534 34.162927,53.2194903 34.2388259,52.886981 C34.3147248,52.5544716 34.5197518,52.2658004 34.8087044,52.0846111 L75.4552523,27.1533583 C75.648494,27.0334074 75.8701211,26.9669193 76.0974793,26.9606902 C76.1998353,26.9478624 76.3033923,26.9478624 76.4057483,26.9606902 C76.7408687,27.0400037 77.0301037,27.2505668 77.208532,27.5451167 L84.4143192,39.2914489 C84.6044738,39.5935731 84.6603166,39.9612053 84.5684536,40.3061676 L84.5684536,40.2933231 Z" id="形状" fill="#B2E4CA" fill-rule="nonzero"></path>
                <text id="已办结" transform="translate(58.797431, 46.500000) rotate(-32.000000) translate(-58.797431, -46.500000) " font-family="PingFangSC-Semibold, PingFang SC" font-size="12" font-weight="500" fill="#95D4B4">
                    <tspan x="40.7974307" y="51">已办结</tspan>
                </text>
            </g>
        </g>
    </g>
</svg>