<svg t="1641539715726" class="icon" viewBox="0 0 1024 1024" version="1.1" xmlns="http://www.w3.org/2000/svg" p-id="11519" width="200" height="200"><path d="M960 320 576 320 576 0 640 0 640 256 960 256Z" p-id="11520" fill="#f64357"></path><path d="M339.2 678.4 640 377.6l44.8 44.8L384 723.2 339.2 678.4z" p-id="11521" fill="#f64357"></path><path d="M339.2 422.4 384 377.6l300.8 300.8L640 723.2 339.2 422.4z" p-id="11522" fill="#f64357"></path><path d="M870.4 1024 153.6 1024C104.128 1024 64 983.872 64 934.4L64 89.6C64 40.128 104.128 0 153.6 0L640 0l320 249.6 0 684.8C960 983.872 919.872 1024 870.4 1024zM153.6 64C134.4 64 128 76.8 128 89.6l0 844.8C128 948.544 139.456 960 153.6 960l716.8 0c19.2 0 25.6-12.8 25.6-25.6L896 275.2 620.8 64 153.6 64z" p-id="11523" fill="#f64357"></path></svg>