<?xml version="1.0" encoding="UTF-8"?>
<svg width="60px" height="60px" viewBox="0 0 60 60" version="1.1" xmlns="http://www.w3.org/2000/svg" xmlns:xlink="http://www.w3.org/1999/xlink">
    <!-- Generator: Sketch 59 (86127) - https://sketch.com -->
    <title>ic_1_off</title>
    <desc>Created with Sketch.</desc>
    <g id="页面-1" stroke="none" stroke-width="1" fill="none" fill-rule="evenodd">
        <g id="ic_1_off">
            <circle id="椭圆形" fill="#F4F8FC" cx="30" cy="30" r="30"></circle>
            <g id="Group" transform="translate(14.000000, 18.000000)" fill="#8399B0">
                <path d="M31.231,23.829 L17.48,23.829 C17.204,23.829 16.98,23.605 16.98,23.329 C16.98,23.053 17.204,22.829 17.48,22.829 L30.731,22.829 L30.731,5.329 L28.585,5.329 C28.309,5.329 28.085,5.105 28.085,4.829 C28.085,4.553 28.309,4.329 28.585,4.329 L31.231,4.329 C31.507,4.329 31.731,4.553 31.731,4.829 L31.731,23.329 C31.731,23.606 31.507,23.829 31.231,23.829 L31.231,23.829 Z" id="Shape"></path>
                <path d="M14.314,23.829 L0.647,23.829 C0.371,23.829 0.147,23.605 0.147,23.329 L0.147,4.829 C0.147,4.553 0.371,4.329 0.647,4.329 L3.272,4.329 C3.548,4.329 3.772,4.553 3.772,4.829 C3.772,5.105 3.548,5.329 3.272,5.329 L1.147,5.329 L1.147,22.829 L14.314,22.829 C14.59,22.829 14.814,23.053 14.814,23.329 C14.814,23.605 14.59,23.829 14.314,23.829 L14.314,23.829 Z" id="Shape"></path>
                <path d="M29.022,21.954 C28.914,21.954 28.804,21.936 28.699,21.9 C19.414,18.729 16.69,21.569 16.663,21.598 C16.474,21.806 16.203,21.928 15.922,21.928 L15.919,21.928 C15.636,21.927 15.364,21.81 15.176,21.6 C15.149,21.571 12.422,18.73 3.138,21.901 C2.832,22.005 2.494,21.955 2.233,21.768 C1.97,21.58 1.815,21.277 1.815,20.955 L1.815,2.705 C1.815,2.27 2.096,1.885 2.51,1.752 C2.857,1.642 10.777,-0.841 15.919,1.573 C21.062,-0.844 28.981,1.642 29.327,1.752 C29.741,1.885 30.022,2.27 30.022,2.705 L30.022,20.955 C30.022,21.278 29.866,21.58 29.604,21.768 C29.432,21.891 29.228,21.954 29.022,21.954 L29.022,21.954 Z M10.816,18.386 C13.479,18.386 15.063,19.073 15.918,19.639 C17.348,18.687 20.831,17.398 28.022,19.58 L28.022,3.458 C25.992,2.917 19.997,1.583 16.402,3.569 C16.101,3.735 15.736,3.735 15.435,3.569 C11.838,1.583 5.844,2.917 3.814,3.458 L3.814,19.58 C6.714,18.701 9.013,18.386 10.816,18.386 L10.816,18.386 Z" id="Shape"></path>
                <path d="M15.939,21.954 L15.897,21.954 C15.502,21.954 15.145,21.722 14.984,21.362 C14.823,21.002 14.889,20.581 15.153,20.287 C15.345,20.071 15.628,19.951 15.924,19.943 C16.213,19.947 16.497,20.066 16.684,20.287 C16.935,20.584 17,21.012 16.836,21.365 C16.672,21.718 16.328,21.954 15.939,21.954 L15.939,21.954 Z" id="Shape"></path>
                <path d="M15.918,21.431 C15.642,21.431 15.418,21.207 15.418,20.931 L15.418,2.695 C15.418,2.419 15.642,2.195 15.918,2.195 C16.194,2.195 16.418,2.419 16.418,2.695 L16.418,20.931 C16.418,21.207 16.195,21.431 15.918,21.431 L15.918,21.431 Z" id="Shape"></path>
                <path d="M17.481,24.954 L14.314,24.954 C14.038,24.954 13.814,24.73 13.814,24.454 C13.814,22.912 14.729,21.704 15.897,21.704 C17.066,21.704 17.981,22.912 17.981,24.454 C17.981,24.731 17.757,24.954 17.481,24.954 L17.481,24.954 Z M14.861,23.954 L16.934,23.954 C16.797,23.24 16.377,22.704 15.897,22.704 C15.417,22.704 14.998,23.24 14.861,23.954 L14.861,23.954 Z" id="Shape"></path>
            </g>
        </g>
    </g>
</svg>