<?xml version="1.0" encoding="UTF-8"?>
<svg width="72px" height="72px" viewBox="0 0 72 72" version="1.1" xmlns="http://www.w3.org/2000/svg" xmlns:xlink="http://www.w3.org/1999/xlink">
    <!-- Generator: Sketch 59 (86127) - https://sketch.com -->
    <title>ic_2_on</title>
    <desc>Created with Sketch.</desc>
    <g id="页面-1" stroke="none" stroke-width="1" fill="none" fill-rule="evenodd">
        <g id="ic_2_on" transform="translate(6.000000, 6.000000)">
            <circle id="Oval-1-Copy" stroke="#4285F4" stroke-width="6" fill="#4285F4" cx="30" cy="30" r="33"></circle>
            <path d="M45.9930703,28.705652 C45.9172162,27.7811178 45.7584284,26.8495106 45.5197409,25.9381118 C45.3093723,25.1328071 44.6276972,24.5386801 43.8003822,24.4406694 L41.2061733,24.1335017 L42.4259066,21.8347963 C42.8152908,21.1012314 42.7161748,20.2049889 42.1750825,19.5744869 C41.5601589,18.8560783 40.8825293,18.1932428 40.1624214,17.6031576 C39.7922536,17.2990212 39.3371292,17.1444269 38.8789706,17.1444269 C38.5401558,17.1444269 38.2003296,17.2293022 37.8908451,17.402084 L35.6142118,18.6762236 L35.2450554,16.0804547 C35.1287458,15.2599937 34.5209019,14.5921061 33.7128033,14.3991159 C32.8511012,14.1929902 31.9125336,14.0606252 30.924408,14.0030313 C30.8849639,14.0010104 30.8465312,14 30.8080985,14 C30.0232618,14 29.3041652,14.4556994 28.9724302,15.174108 L27.8791203,17.5415219 L26.0606456,15.6651721 C25.6722728,15.2640354 25.1443285,15.0498263 24.6062703,15.0498263 C24.3433096,15.0498263 24.0793375,15.1013578 23.8264906,15.2064414 C22.9212988,15.5833281 22.0818472,16.0208399 21.3303863,16.5038207 C20.6325289,16.9534575 20.2795546,17.7840227 20.442388,18.5964004 L20.9531387,21.1669087 L18.3821917,20.7182823 C18.2658821,20.6970635 18.1485612,20.6879697 18.033263,20.6879697 C17.3374284,20.6879697 16.6800266,21.0466688 16.307836,21.6539312 C15.8264155,22.4400379 15.4056783,23.2887907 15.0587724,24.1769498 C14.7563675,24.9519419 14.958645,25.8320177 15.5685117,26.395832 L17.4830682,28.1660878 L15.1336151,29.3139249 C14.3861997,29.6796969 13.9381551,30.4658036 14.0069294,31.294348 C14.0827835,32.2188822 14.2415713,33.1504894 14.4802588,34.0618882 C14.6906274,34.8671929 15.3723025,35.4613199 16.1996175,35.5593306 L18.7948378,35.8664983 L17.5740931,38.1672245 C17.1847089,38.9017998 17.2848363,39.7980423 17.8259286,40.4295548 C18.4388294,41.1429113 19.116459,41.8047363 19.8385897,42.3968424 C20.2087575,42.7009788 20.6638819,42.8555731 21.1220404,42.8555731 C21.4608552,42.8555731 21.8006814,42.7706978 22.110166,42.597916 L24.3857879,41.3237764 L24.7539329,43.9205557 C24.8702425,44.744048 25.4801091,45.412946 26.2912419,45.6039154 C27.1549668,45.8080202 28.092523,45.9403852 29.0755917,45.9969687 C29.1150358,45.9989896 29.1534685,46 29.1919012,46 C29.9767379,46 30.6968458,45.5443006 31.0285809,44.825892 L32.1208794,42.4584781 L33.9393541,44.3348279 C34.3277269,44.7369751 34.8556712,44.9501737 35.3937293,44.9501737 C35.6546673,44.9501737 35.9186395,44.8996527 36.1694636,44.7955794 C37.0625187,44.4257657 37.9019703,43.9892643 38.6655679,43.500221 C39.365448,43.0515946 39.7194337,42.2200189 39.5576117,41.4056205 L39.0458496,38.8341017 L41.6167966,39.2837386 C41.7341175,39.3049574 41.8504271,39.3140512 41.9667367,39.3140512 C42.6635826,39.3140512 43.3209845,38.9533312 43.6931751,38.3460688 C44.1776297,37.5528892 44.5983669,36.703126 44.9422387,35.8210294 C45.2446435,35.0470477 45.0413546,34.1669719 44.431488,33.604168 L42.5169315,31.8339122 L44.867396,30.6860751 C45.6138,30.3192927 46.0618446,29.5341964 45.9930703,28.705652 L45.9930703,28.705652 Z M30.8101212,16.0208399 C31.6404704,16.0683296 32.4556487,16.1754342 33.2435195,16.3643827 L33.8220332,20.4323334 C34.3378408,20.6394695 34.8354435,20.8799495 35.30675,21.1648879 L38.879982,19.1652668 C39.5151334,19.6866435 40.1037609,20.2635933 40.6397963,20.8890433 L38.7262511,24.4952321 C39.0195535,24.9590148 39.271389,25.4531102 39.4898487,25.9653931 L43.5637175,26.4483739 C43.7680178,27.2304389 43.909612,28.0377644 43.9783864,28.8703505 L40.2878334,30.6729397 C40.2514235,31.2327123 40.1806264,31.7813704 40.0572371,32.3148721 L43.0570124,35.0864541 C42.7566303,35.8574045 42.3925308,36.5940006 41.9657253,37.2932112 L37.9292778,36.5869277 C37.5763036,37.0113041 37.1889421,37.403347 36.7712391,37.7650774 L37.5742808,41.7986738 C36.8885601,42.2382065 36.1563155,42.6130723 35.3937293,42.9293338 L32.5395938,39.9829492 C32.0116496,40.117335 31.4665117,40.2123145 30.9082258,40.2618251 L29.1929126,43.9781497 C28.3625635,43.9306599 27.5473852,43.8235554 26.7585029,43.6366277 L26.1810007,39.5666561 C25.665193,39.3615409 25.1675904,39.1190401 24.6962838,38.8341017 L21.1230518,40.8337228 C20.4879005,40.3123461 19.8992729,39.7374171 19.3622262,39.1119672 L21.2767827,35.5057783 C20.9814576,35.0419956 20.7306335,34.5458794 20.5131852,34.0335965 L16.4393163,33.5506157 C16.2350161,32.7685507 16.0934218,31.9612251 16.0246475,31.1286391 L19.714189,29.3260499 C19.750599,28.7682981 19.8213961,28.2176192 19.943774,27.6841175 L16.9450101,24.9125355 C17.2453922,24.1436059 17.6094917,23.4049889 18.0362972,22.7077992 L22.0727447,23.4130723 C22.4257189,22.9897063 22.8130803,22.5976634 23.2307834,22.2359331 L22.4287531,18.2023366 C23.1144738,17.7607831 23.8467183,17.3879381 24.6093045,17.0696558 L27.46344,20.0160404 C27.9913843,19.8816546 28.5365221,19.7856647 29.0937967,19.7371645 L30.8101212,16.0208399 Z M38.1629083,31.356994 C37.8908451,31.294348 37.6197932,31.4640985 37.5570872,31.7359015 C36.5993032,35.8968109 32.4293526,38.5057152 28.2634475,37.5488475 C27.9913843,37.4862015 27.7203324,37.655952 27.6576264,37.927755 C27.5949204,38.1995579 27.7648335,38.4703505 28.0368967,38.5329965 C30.3924182,39.0735712 32.7479397,38.6077676 34.6503595,37.4174929 C36.5527794,36.2272182 38.0010863,34.3134828 38.5421786,31.9622356 C38.6048846,31.6904326 38.4349715,31.41964 38.1629083,31.356994 Z M30.0010112,23.8849384 C26.6209542,23.8849384 23.8811055,26.6221661 23.8811055,29.9989896 C23.8811055,33.3758131 26.6209542,36.1130407 30.0010112,36.1130407 C33.3810682,36.1130407 36.120917,33.3758131 36.120917,29.9989896 C36.120917,26.6221661 33.3810682,23.8849384 30.0010112,23.8849384 Z M30.0010112,24.8953584 C32.8177254,24.8953584 35.1095295,27.18497 35.1095295,29.9989896 C35.1095295,32.8130092 32.8177254,35.1026208 30.0010112,35.1026208 C27.1842971,35.1026208 24.892493,32.8130092 24.892493,29.9989896 C24.892493,27.18497 27.1842971,24.8953584 30.0010112,24.8953584 Z M31.9661371,21.4639722 C27.2561056,20.3818124 22.5430399,23.3302179 21.4598439,28.0357436 C21.3971378,28.3075466 21.5670509,28.5783391 21.8391142,28.6409852 C22.1111774,28.7036312 22.3822292,28.5338806 22.4449353,28.2620777 C23.4027192,24.1011683 27.5726699,21.492264 31.7385749,22.4491317 C31.8741009,22.4804547 32.0106382,22.4541838 32.119868,22.3854752 C32.2301093,22.3167667 32.313043,22.2066309 32.3454074,22.0692138 C32.4081135,21.7974108 32.2382004,21.5266183 31.9661371,21.4639722 Z" id="Shape" fill="#FFFFFF"></path>
        </g>
    </g>
</svg>