<?xml version="1.0" encoding="UTF-8"?>
<svg width="72px" height="72px" viewBox="0 0 72 72" version="1.1" xmlns="http://www.w3.org/2000/svg" xmlns:xlink="http://www.w3.org/1999/xlink">
    <!-- Generator: Sketch 59 (86127) - https://sketch.com -->
    <title>ic_3_off</title>
    <desc>Created with Sketch.</desc>
    <g id="页面-1" stroke="none" stroke-width="1" fill="none" fill-rule="evenodd">
        <g id="ic_3_off" transform="translate(6.000000, 6.000000)">
            <circle id="Oval-1-Copy" stroke="#FFFFFF" stroke-width="6" fill="#F4F8FC" cx="30" cy="30" r="33"></circle>
            <path d="M30,14 C21.1779195,14 14,21.1779195 14,30 C14,38.8220805 21.1779195,46 30,46 C38.8220805,46 46,38.8220805 46,30 C46,21.1779195 38.8220805,14 30,14 L30,14 Z M30,16.0210952 C37.7074465,16.0210952 43.9789048,22.291543 43.9789048,30 C43.9789048,37.708457 37.708457,43.9789048 30,43.9789048 C22.291543,43.9789048 16.0210952,37.708457 16.0210952,30 C16.0210952,22.291543 22.2925535,16.0210952 30,16.0210952 Z M30,17.9360829 C23.3475652,17.9360829 17.9360829,23.3475652 17.9360829,30 C17.9360829,36.6524348 23.3475652,42.0639171 30,42.0639171 C36.6524348,42.0639171 42.0639171,36.6524348 42.0639171,30 C42.0639171,23.3475652 36.6514242,17.9360829 30,17.9360829 Z M30.5052738,18.9729047 C36.1956673,19.2316049 40.7683951,23.8043327 41.0270953,29.4947262 L39.4738837,29.4947262 C39.1949725,29.4947262 38.9686099,29.7210889 38.9686099,30 C38.9686099,30.2789111 39.1949725,30.5052738 39.4738837,30.5052738 L41.0270953,30.5052738 C40.7683951,36.1956673 36.1956673,40.7683951 30.5052738,41.0270953 L30.5052738,39.4738837 C30.5052738,39.1949725 30.2789111,38.9686099 30,38.9686099 C29.7210889,38.9686099 29.4947262,39.1949725 29.4947262,39.4738837 L29.4947262,41.0270953 C23.8043327,40.7683951 19.2316049,36.1956673 18.9729047,30.5052738 L20.5261163,30.5052738 C20.8050275,30.5052738 21.0313901,30.2789111 21.0313901,30 C21.0313901,29.7210889 20.8050275,29.4947262 20.5261163,29.4947262 L18.9729047,29.4947262 C19.2316049,23.8043327 23.8043327,19.2316049 29.4947262,18.9729047 L29.4947262,20.5261163 C29.4947262,20.8050275 29.7210889,21.0313901 30,21.0313901 C30.2789111,21.0313901 30.5052738,20.8050275 30.5052738,20.5261163 L30.5052738,18.9729047 Z M24.5086844,29.4937157 L23.30108,29.4937157 C23.0221689,29.4937157 22.7958062,29.7200783 22.7958062,29.9989895 C22.7958062,33.971452 26.0275374,37.2031832 30,37.2031832 C30.2789111,37.2031832 30.5052738,36.9768206 30.5052738,36.6979094 L30.5052738,35.4903051 C30.5052738,35.2113939 30.2789111,34.9850313 30,34.9850313 C29.7210889,34.9850313 29.4947262,35.2113939 29.4947262,35.4903051 L29.4947262,36.1673719 C26.4822838,35.9228194 24.0771806,33.5167056 23.8316175,30.5042632 L24.5086844,30.5042632 C24.7875955,30.5042632 25.0139582,30.2779006 25.0139582,29.9989895 C25.0139582,29.7200783 24.7875955,29.4937157 24.5086844,29.4937157 Z M23.3485758,23.3485758 C23.1808249,23.5163267 23.1525295,23.7780585 23.2798585,23.9781469 L27.5746858,30.6932356 C27.5777174,30.6982884 27.5837807,30.6992989 27.5868124,30.7043517 C27.7010042,31.0994758 27.9031137,31.4753995 28.2143624,31.7866481 C28.5205583,32.0928441 28.8944609,32.2989958 29.29868,32.4162193 L29.3077749,32.4253142 L29.3077749,32.4253142 L36.0228636,36.7201415 C36.1067391,36.774711 36.20072,36.7999747 36.2957115,36.7999747 C36.4260721,36.7999747 36.5554222,36.7494474 36.6534453,36.6524348 C36.8211962,36.4846839 36.8494916,36.2229521 36.7221626,36.0228636 L32.4253142,29.3067644 C32.4222826,29.3017116 32.4162193,29.29868 32.4131876,29.2936272 C32.2989958,28.8985031 32.0968863,28.52359 31.7866481,28.2133519 C31.4895471,27.9152403 31.1196867,27.7222257 30.7275943,27.6100549 C30.7144571,27.5999495 30.7073833,27.5837807 30.6932356,27.5756963 L23.9781469,23.2808691 C23.7780585,23.1505084 23.5163267,23.1788038 23.3485758,23.3485758 Z M32.3121329,31.0054949 L34.6313396,34.6303291 L31.0085265,32.3131434 C31.2945115,32.1888461 31.5592749,32.0130108 31.7866481,31.7856376 C32.0180635,31.5542222 32.1888461,31.2884482 32.3121329,31.0054949 Z M30.3001326,28.5155056 L30.3041748,28.5155056 C30.5921809,28.5741173 30.8579549,28.715594 31.0711804,28.9288196 C31.6623508,29.5199899 31.6623508,30.4810207 31.0711804,31.072191 C30.4992105,31.6441609 29.4997789,31.6441609 28.927809,31.072191 C28.6499084,30.7932799 28.5134845,30.4315038 28.4973157,30.0656856 C28.4963052,30.0343586 28.4892314,30.0020211 28.4902419,29.9706941 C28.4932735,29.8029432 28.5276322,29.6362029 28.5862439,29.4765363 C28.599381,29.4421777 28.6155498,29.4088297 28.630708,29.3754816 C28.7034674,29.2148045 28.7954273,29.0591802 28.927809,28.927809 C29.0106739,28.8449441 29.1036443,28.7762269 29.2006569,28.715594 C29.2269311,28.6994253 29.2552264,28.6862881 29.2825112,28.6711299 C29.3572917,28.630708 29.4340933,28.5963494 29.5139266,28.5690646 C29.5462641,28.5579486 29.5786017,28.5478431 29.6109392,28.5397587 C29.6938041,28.5175267 29.7776795,28.5043896 29.8635761,28.4963052 C29.892882,28.4932735 29.9221878,28.4882208 29.9514937,28.4882208 C30.0666961,28.4851892 30.1839197,28.4912524 30.3001326,28.5155056 Z M30,22.7958062 C29.7210889,22.7958062 29.4947262,23.0221689 29.4947262,23.30108 L29.4947262,24.5086844 C29.4947262,24.7875955 29.7210889,25.0139582 30,25.0139582 C30.2789111,25.0139582 30.5052738,24.7875955 30.5052738,24.5086844 L30.5052738,23.8316175 C33.5177162,24.07617 35.9228194,26.4822838 36.1683825,29.4947262 L35.4913156,29.4947262 C35.2124045,29.4947262 34.9860418,29.7210889 34.9860418,30 C34.9860418,30.2789111 35.2124045,30.5052738 35.4913156,30.5052738 L36.69892,30.5052738 C36.9778311,30.5052738 37.2041938,30.2789111 37.2041938,30 C37.2041938,26.0275374 33.9724626,22.7958062 30,22.7958062 Z" id="Shape" fill="#8399B0"></path>
        </g>
    </g>
</svg>